<?xml version="1.0" encoding="utf-8"?>
<!-- Generator: Adobe Illustrator 23.0.3, SVG Export Plug-In . SVG Version: 6.00 Build 0)  -->
<svg version="1.1" xmlns="http://www.w3.org/2000/svg" xmlns:xlink="http://www.w3.org/1999/xlink" x="0px" y="0px"
	 viewBox="0 0 288 288" style="enable-background:new 0 0 288 288;" xml:space="preserve">
<style type="text/css">
	.st0{fill:#123256;}
	.st1{fill:#FFFFFF;}
	.st2{fill:#E12229;}
	.st3{fill:#1A3F71;}
	.st4{fill:#A7A9AC;}
</style>
<g id="background">
</g>
<g id="Layer_1">
	<g>
		<polygon class="st0" points="241.72,28.92 162.5,28.92 151.71,28.92 151.71,39.7 151.71,95.88 136.29,95.88 136.29,39.7 
			136.29,28.92 125.5,28.92 46.28,28.92 35.49,28.92 35.49,39.7 35.49,248.3 35.49,259.08 46.28,259.08 125.5,259.08 136.29,259.08 
			136.29,248.3 136.29,191.4 151.71,191.4 151.71,248.3 151.71,259.08 162.5,259.08 241.72,259.08 252.51,259.08 252.51,248.3 
			252.51,39.7 252.51,28.92 		"/>
		<polygon class="st1" points="162.5,39.7 162.5,106.67 125.5,106.67 125.5,39.7 46.28,39.7 46.28,248.3 125.5,248.3 125.5,180.61 
			162.5,180.61 162.5,248.3 241.72,248.3 241.72,39.7 		"/>
		<rect x="55.92" y="49.35" class="st2" width="59.93" height="24.81"/>
		<rect x="55.92" y="81.48" class="st2" width="59.93" height="27.51"/>
		<rect x="172.15" y="81.48" class="st2" width="59.93" height="27.51"/>
		<rect x="172.15" y="49.35" class="st2" width="59.93" height="24.81"/>
		<g>
			<rect x="55.92" y="116.31" class="st2" width="176.15" height="24.81"/>
			<polygon class="st3" points="55.92,238.65 115.85,238.65 115.85,170.97 172.15,170.97 172.15,238.65 232.08,238.65 
				232.08,148.45 55.92,148.45 			"/>
		</g>
	</g>
</g>
</svg>
