<?xml version="1.0" encoding="utf-8"?>
<!-- Generator: Adobe Illustrator 23.0.3, SVG Export Plug-In . SVG Version: 6.00 Build 0)  -->
<svg version="1.1" xmlns="http://www.w3.org/2000/svg" xmlns:xlink="http://www.w3.org/1999/xlink" x="0px" y="0px"
	 viewBox="0 0 432 288" style="enable-background:new 0 0 432 288;" xml:space="preserve">
<style type="text/css">
	.st0{fill:#123256;}
	.st1{fill:#FFFFFF;}
	.st2{fill:#E12229;}
	.st3{fill:#1A3F71;}
	.st4{fill:#A7A9AC;}
</style>
<g id="background">
</g>
<g id="Layer_1">
	<g>
		<polygon class="st0" points="248.19,12.92 226.15,12.92 223.15,12.92 223.15,15.92 223.15,31.55 218.86,31.55 218.86,15.92 
			218.86,12.92 215.86,12.92 193.82,12.92 190.82,12.92 190.82,15.92 190.82,73.94 190.82,76.94 193.82,76.94 215.86,76.94 
			218.86,76.94 218.86,73.94 218.86,58.11 223.15,58.11 223.15,73.94 223.15,76.94 226.15,76.94 248.19,76.94 251.19,76.94 
			251.19,73.94 251.19,15.92 251.19,12.92 		"/>
		<polygon class="st1" points="226.15,15.92 226.15,34.55 215.86,34.55 215.86,15.92 193.82,15.92 193.82,73.94 215.86,73.94 
			215.86,55.11 226.15,55.11 226.15,73.94 248.19,73.94 248.19,15.92 		"/>
		<rect x="196.51" y="18.6" class="st2" width="16.67" height="6.9"/>
		<rect x="196.51" y="27.54" class="st2" width="16.67" height="7.65"/>
		<rect x="228.83" y="27.54" class="st2" width="16.67" height="7.65"/>
		<rect x="228.83" y="18.6" class="st2" width="16.67" height="6.9"/>
		<g>
			<rect x="196.51" y="37.23" class="st2" width="49" height="6.9"/>
			<polygon class="st3" points="196.51,71.26 213.18,71.26 213.18,52.43 228.83,52.43 228.83,71.26 245.5,71.26 245.5,46.17 
				196.51,46.17 			"/>
		</g>
	</g>
	<g>
		<g>
			<path class="st1" d="M230.02,265.39v-6.36c-0.05-2.04-0.89-3.94-2.35-5.37c-1.46-1.43-3.39-2.21-5.44-2.21h-5.67
				c-2.04,0-3.98,0.79-5.44,2.21c-1.46,1.42-2.29,3.33-2.35,5.37v11.82h0.97h3.94h0.97v-0.97v-3.71h5.93v3.71v0.97h0.97h3.94h0.97
				v-0.79c0.18,0.22,0.39,0.41,0.62,0.59c0.67,0.51,1.47,0.78,2.31,0.78c2.11,0,3.83-1.72,3.83-3.83v-1.24v-0.97H230.02z"/>
		</g>
		<g>
			<path class="st3" d="M222.23,252.42h-5.67c-3.71,0-6.72,2.96-6.82,6.64h19.3C228.95,255.38,225.94,252.42,222.23,252.42z"/>
			<path class="st2" d="M230.1,266.36v1.72c0,0.29-0.23,0.52-0.52,0.52s-0.52-0.23-0.52-0.52v-7.95h-19.31v3.86v5.9h3.94v-4.68h7.87
				v4.68h3.94v-4.74c0-0.29,0.23-0.52,0.52-0.52c0.29,0,0.52,0.23,0.52,0.52v2.46c0,0.93,0.45,1.76,1.14,2.28
				c0.48,0.36,1.08,0.58,1.73,0.58c1.58,0,2.86-1.28,2.86-2.86v-1.24H230.1z"/>
		</g>
		<g>
			<polygon class="st1" points="213.25,254.35 214.43,255.22 215.62,254.36 215.16,255.75 216.34,256.62 214.88,256.61 214.42,258 
				213.97,256.61 212.51,256.6 213.7,255.75 			"/>
			<polygon class="st1" points="218.22,254.35 219.4,255.22 220.59,254.36 220.13,255.75 221.31,256.62 219.84,256.61 219.38,258 
				218.94,256.61 217.47,256.6 218.66,255.75 			"/>
			<polygon class="st1" points="223.19,254.35 224.37,255.22 225.56,254.36 225.09,255.75 226.27,256.62 224.81,256.61 224.35,258 
				223.9,256.61 222.44,256.6 223.63,255.75 			"/>
		</g>
	</g>
	<g>
		<g>
			<g>
				<path class="st0" d="M57.8,157.31l4.92-5.48c2.03,2.23,4.01,3.55,6.5,3.55c2.94,0,4.77-1.78,4.77-5.89V126.6h8.02v23.24
					c0,4.21-1.22,7.36-3.35,9.49c-2.18,2.18-5.38,3.3-9.24,3.3C63.89,162.63,60.24,160.2,57.8,157.31z"/>
				<path class="st0" d="M90.33,126.6h7.82v35.53h-7.82V126.6z"/>
				<path class="st0" d="M107.03,126.6h8.42l9.34,15.02l9.34-15.02h8.42v35.53h-7.76v-23.19l-10,15.17h-0.2l-9.9-15.02v23.04h-7.66
					V126.6z"/>
				<path class="st0" d="M166.32,126.6h7.82v14.06h14.41V126.6h7.82v35.53h-7.82v-14.26h-14.41v14.26h-7.82V126.6z"/>
				<path class="st0" d="M217.07,126.35h7.21l15.23,35.78h-8.17l-3.25-7.97h-15.02l-3.25,7.97h-7.97L217.07,126.35z M225.29,147.26
					l-4.72-11.52l-4.72,11.52H225.29z"/>
				<path class="st0" d="M244.99,126.6h16.24c4.52,0,8.02,1.27,10.35,3.6c1.98,1.98,3.04,4.77,3.04,8.12v0.1
					c0,5.73-3.1,9.34-7.61,11.01l8.68,12.69h-9.14l-7.61-11.37h-6.14v11.37h-7.82V126.6z M260.72,143.86c3.81,0,5.99-2.03,5.99-5.02
					v-0.1c0-3.35-2.33-5.08-6.14-5.08h-7.76v10.2H260.72z"/>
				<path class="st0" d="M277.63,126.6h8.63l9.29,25.02l9.29-25.02h8.42l-14.36,35.78h-6.9L277.63,126.6z"/>
				<path class="st0" d="M318.74,126.6h26.8v6.95H326.5v7.21h16.75v6.95H326.5v7.46h19.29v6.95h-27.05V126.6z"/>
				<path class="st0" d="M362.74,148.12l-13.65-21.52h9.14l8.48,14.26l8.63-14.26h8.88l-13.65,21.37v14.16h-7.82V148.12z"/>
			</g>
			<g>
				<path class="st2" d="M166.79,87.25h5.31l8.23,20.99l8.19-20.99h5.19l-11.35,27.5h-4.21L166.79,87.25z"/>
				<path class="st2" d="M195.5,100.98v-0.08c0-7.68,5.93-14.12,14.32-14.12c8.39,0,14.24,6.36,14.24,14.04v0.08
					c0,7.68-5.93,14.12-14.32,14.12C201.35,115.02,195.5,108.66,195.5,100.98z M219.03,100.98v-0.08c0-5.31-3.86-9.71-9.28-9.71
					c-5.42,0-9.21,4.33-9.21,9.64v0.08c0,5.31,3.86,9.71,9.28,9.71C215.24,110.61,219.03,106.28,219.03,100.98z"/>
				<path class="st2" d="M235.1,91.7h-8.66v-4.45h22.16v4.45h-8.66v22.86h-4.84V91.7z"/>
				<path class="st2" d="M253.66,87.25h20.25v4.29h-15.45v7.1h13.69v4.29h-13.69v7.33h15.64v4.29h-20.44V87.25z"/>
			</g>
			<rect x="48.65" y="99.27" class="st0" width="109.67" height="2.86"/>
			<rect x="48.65" y="232.07" class="st0" width="344.71" height="2.86"/>
			<rect x="283.69" y="99.27" class="st0" width="109.67" height="2.86"/>
			<g>
				<path class="st4" d="M97.1,176.48h-2.37v-2.21h7.98v2.21h-2.93l4.21,13.43l4.21-12.16l-0.44-1.28h-2.56v-2.21h8.1v2.21h-2.96
					l4.46,13.37l4.18-13.37h-2.93v-2.21h8.01v2.21h-2.37l-5.46,16.77h-2.62l-4.15-11.85l-4.3,11.85h-2.62L97.1,176.48z"/>
				<path class="st4" d="M126.71,191.04h2.81v-14.56h-2.81v-2.21h15.37v5.33h-2.52v-3.12h-7.29v6.11h7.86v2.21h-7.86v6.23h7.36
					v-3.21h2.56v5.42h-15.46V191.04z"/>
				<path class="st4" d="M146.38,191.04h2.81v-14.56h-2.81v-2.21h9.04c4.08,0,6.95,1.75,6.95,4.89c0,1.84-0.97,3.58-3.71,4.36
					c3.09,0.65,4.36,2.49,4.36,4.68c0,3.18-2.71,5.05-7.17,5.05h-9.48V191.04z M155.08,182.56c2.87,0,4.58-1.09,4.58-3.12
					c0-1.96-1.68-2.99-4.24-2.99h-3.55v6.11H155.08z M155.79,191.07c2.74,0,4.52-1.09,4.52-3.15c0-2.09-1.75-3.24-4.64-3.24h-3.8
					v6.39H155.79z"/>
				<path class="st4" d="M167.01,191.04h2.81v-14.56h-2.81v-2.21h15.37v5.33h-2.52v-3.12h-7.29v6.11h7.86v2.21h-7.86v6.23h7.36
					v-3.21h2.56v5.42h-15.46V191.04z"/>
				<path class="st4" d="M186.68,191.04h2.81v-14.56h-2.81v-2.21h8.88c4.55,0,7.57,2.24,7.57,5.8c0,2.56-1.53,4.46-4.18,5.21
					l3.21,5.77h2.62v2.21h-4.49l-4.02-7.26h-4.05v5.05h2.77v2.21h-8.32V191.04z M195.63,183.84c3.37,0,4.74-1.56,4.74-3.68
					c0-2.12-1.4-3.68-4.74-3.68h-3.4v7.36H195.63z"/>
				<path class="st4" d="M216.54,183.84c0-6.05,3.93-9.94,10.1-9.94c2.81,0,5.42,0.81,6.8,1.47v4.99h-2.65v-3.49
					c-1.06-0.37-2.62-0.65-4.02-0.65c-4.3,0-7.39,2.65-7.39,7.51c0,5.08,3.4,7.54,7.51,7.54c2.49,0,4.86-0.94,6.55-1.9v2.62
					c-1.4,0.75-3.8,1.65-6.76,1.65C220.69,193.63,216.54,190.01,216.54,183.84z"/>
				<path class="st4" d="M237.37,183.78c0-5.74,3.96-9.88,9.76-9.88c5.8,0,9.76,4.15,9.76,9.88s-3.96,9.85-9.76,9.85
					C241.32,193.63,237.37,189.51,237.37,183.78z M254.07,183.78c0-4.61-2.87-7.57-6.95-7.57c-4.05,0-6.92,2.99-6.92,7.57
					c0,4.61,2.84,7.54,6.92,7.54C251.17,191.32,254.07,188.36,254.07,183.78z"/>
				<path class="st4" d="M262.77,186.92v-10.44H260v-2.21h8.29v2.21h-2.77v10.22c0,3.24,2.21,4.46,4.83,4.46
					c2.62,0,4.77-1.25,4.77-4.49v-10.19h-2.87v-2.21h8.2v2.21h-2.77v10.26c0,4.4-2.93,6.89-7.42,6.89
					C266.2,193.63,262.77,191.57,262.77,186.92z"/>
				<path class="st4" d="M283.81,191.04h2.81v-14.56h-2.81v-2.21h5.61l10.26,14.56v-12.34h-2.77v-2.21h8.17v2.21h-2.77v16.77h-2.46
					l-10.63-14.99v12.78h2.77v2.21h-8.17V191.04z"/>
				<path class="st4" d="M312.24,191.04h2.99v-14.56h-4.61v3.15h-2.49v-5.36h16.96v5.36h-2.52v-3.15h-4.58v14.56h2.99v2.21h-8.73
					V191.04z"/>
				<path class="st4" d="M332.9,191.04h2.87v-4.61l-6.27-9.94h-2.43v-2.21h8.35v2.18h-2.93l4.64,7.51l4.64-7.51h-2.9v-2.18h8.2v2.21
					h-2.37l-6.2,9.82v4.74h2.87v2.21h-8.48V191.04z"/>
				<path class="st4" d="M96.29,211.19c0-6.05,3.93-9.94,10.1-9.94c2.81,0,5.42,0.81,6.8,1.47v4.99h-2.65v-3.49
					c-1.06-0.37-2.62-0.65-4.02-0.65c-4.3,0-7.39,2.65-7.39,7.51c0,5.08,3.4,7.54,7.51,7.54c2.49,0,4.86-0.94,6.55-1.9v2.62
					c-1.4,0.75-3.8,1.65-6.76,1.65C100.43,220.97,96.29,217.36,96.29,211.19z"/>
				<path class="st4" d="M117.11,211.12c0-5.74,3.96-9.88,9.76-9.88s9.76,4.15,9.76,9.88s-3.96,9.85-9.76,9.85
					S117.11,216.86,117.11,211.12z M133.82,211.12c0-4.61-2.87-7.57-6.95-7.57c-4.05,0-6.92,2.99-6.92,7.57
					c0,4.61,2.84,7.54,6.92,7.54C130.92,218.67,133.82,215.71,133.82,211.12z"/>
				<path class="st4" d="M140.08,218.39h2.65l0.53-14.56h-2.65v-2.21h6.92l5.55,14l5.58-14h6.92v2.21h-2.68l0.56,14.56h2.65v2.21
					h-7.82v-2.21h2.65l-0.53-14.21l-6.2,15.06h-2.21l-6.2-15.06l-0.53,14.21h2.65v2.21h-7.82V218.39z"/>
				<path class="st4" d="M169.79,218.39h2.65l0.53-14.56h-2.65v-2.21h6.92l5.55,14l5.58-14h6.92v2.21h-2.68l0.56,14.56h2.65v2.21
					h-7.82v-2.21h2.65l-0.53-14.21l-6.2,15.06h-2.21l-6.2-15.06l-0.53,14.21h2.65v2.21h-7.82V218.39z"/>
				<path class="st4" d="M199.62,218.39h2.81v-14.56h-2.81v-2.21h8.32v2.21h-2.77v14.56h2.77v2.21h-8.32V218.39z"/>
				<path class="st4" d="M212.09,219.98v-4.43h2.49v2.71c0.94,0.25,2.37,0.5,3.87,0.5c2.62,0,4.49-0.87,4.49-2.87
					c0-4.86-10.54-2.59-10.54-9.41c0-3.49,2.77-5.24,6.8-5.24c2.03,0,4.24,0.44,5.8,0.97v4.36h-2.52v-2.74
					c-0.81-0.19-2.03-0.37-3.18-0.37c-2.59,0-4.24,1-4.24,2.77c0,4.55,10.54,2.43,10.54,9.48c0,3.77-3.05,5.27-6.98,5.27
					C216.3,220.97,213.86,220.48,212.09,219.98z"/>
				<path class="st4" d="M229.85,219.98v-4.43h2.49v2.71c0.94,0.25,2.37,0.5,3.87,0.5c2.62,0,4.49-0.87,4.49-2.87
					c0-4.86-10.54-2.59-10.54-9.41c0-3.49,2.77-5.24,6.8-5.24c2.03,0,4.24,0.44,5.8,0.97v4.36h-2.52v-2.74
					c-0.81-0.19-2.03-0.37-3.18-0.37c-2.59,0-4.24,1-4.24,2.77c0,4.55,10.54,2.43,10.54,9.48c0,3.77-3.05,5.27-6.98,5.27
					C234.06,220.97,231.63,220.48,229.85,219.98z"/>
				<path class="st4" d="M247.4,218.39h2.81v-14.56h-2.81v-2.21h8.32v2.21h-2.77v14.56h2.77v2.21h-8.32V218.39z"/>
				<path class="st4" d="M259.34,211.12c0-5.74,3.96-9.88,9.76-9.88c5.8,0,9.76,4.15,9.76,9.88s-3.96,9.85-9.76,9.85
					C263.3,220.97,259.34,216.86,259.34,211.12z M276.05,211.12c0-4.61-2.87-7.57-6.95-7.57c-4.05,0-6.92,2.99-6.92,7.57
					c0,4.61,2.84,7.54,6.92,7.54C273.15,218.67,276.05,215.71,276.05,211.12z"/>
				<path class="st4" d="M282.47,218.39h2.81v-14.56h-2.81v-2.21h5.61l10.26,14.56v-12.34h-2.77v-2.21h8.17v2.21h-2.77v16.77h-2.46
					l-10.63-14.99v12.78h2.77v2.21h-8.17V218.39z"/>
				<path class="st4" d="M307.34,218.39h2.81v-14.56h-2.81v-2.21h15.37v5.33h-2.52v-3.12h-7.29v6.11h7.86v2.21h-7.86v6.23h7.36
					v-3.21h2.56v5.42h-15.46V218.39z"/>
				<path class="st4" d="M327.01,218.39h2.81v-14.56h-2.81v-2.21h8.88c4.55,0,7.57,2.24,7.57,5.8c0,2.56-1.53,4.46-4.18,5.21
					l3.21,5.77h2.62v2.21h-4.49l-4.02-7.26h-4.05v5.05h2.77v2.21h-8.32V218.39z M335.96,211.19c3.37,0,4.74-1.56,4.74-3.68
					c0-2.12-1.4-3.68-4.74-3.68h-3.4v7.36H335.96z"/>
			</g>
		</g>
	</g>
</g>
</svg>
