<?xml version="1.0" encoding="utf-8"?>
<!-- Generator: Adobe Illustrator 23.0.3, SVG Export Plug-In . SVG Version: 6.00 Build 0)  -->
<svg version="1.1" xmlns="http://www.w3.org/2000/svg" xmlns:xlink="http://www.w3.org/1999/xlink" x="0px" y="0px"
	 viewBox="0 0 432 288" style="enable-background:new 0 0 432 288;" xml:space="preserve">
<style type="text/css">
	.st0{fill:#123256;}
	.st1{fill:#FFFFFF;}
	.st2{fill:#E12229;}
	.st3{fill:#1A3F71;}
	.st4{fill:#A7A9AC;}
</style>
<g id="background">
</g>
<g id="Layer_1">
	<g>
		<polygon class="st0" points="243.18,12.92 221.15,12.92 218.15,12.92 218.15,15.92 218.15,31.55 213.85,31.55 213.85,15.92 
			213.85,12.92 210.85,12.92 188.82,12.92 185.82,12.92 185.82,15.92 185.82,73.94 185.82,76.94 188.82,76.94 210.85,76.94 
			213.85,76.94 213.85,73.94 213.85,58.11 218.15,58.11 218.15,73.94 218.15,76.94 221.15,76.94 243.18,76.94 246.18,76.94 
			246.18,73.94 246.18,15.92 246.18,12.92 		"/>
		<polygon class="st1" points="221.15,15.92 221.15,34.55 210.85,34.55 210.85,15.92 188.82,15.92 188.82,73.94 210.85,73.94 
			210.85,55.11 221.15,55.11 221.15,73.94 243.18,73.94 243.18,15.92 		"/>
		<rect x="191.5" y="18.6" class="st2" width="16.67" height="6.9"/>
		<rect x="191.5" y="27.54" class="st2" width="16.67" height="7.65"/>
		<rect x="223.83" y="27.54" class="st2" width="16.67" height="7.65"/>
		<rect x="223.83" y="18.6" class="st2" width="16.67" height="6.9"/>
		<g>
			<rect x="191.5" y="37.23" class="st2" width="49" height="6.9"/>
			<polygon class="st3" points="191.5,71.26 208.17,71.26 208.17,52.43 223.83,52.43 223.83,71.26 240.5,71.26 240.5,46.17 
				191.5,46.17 			"/>
		</g>
	</g>
	<g>
		<g>
			<path class="st1" d="M225.02,265.39v-6.36c-0.05-2.04-0.89-3.94-2.35-5.37c-1.46-1.43-3.39-2.21-5.44-2.21h-5.67
				c-2.04,0-3.98,0.79-5.44,2.21c-1.46,1.42-2.29,3.33-2.35,5.37v11.82h0.97h3.94h0.97v-0.97v-3.71h5.93v3.71v0.97h0.97h3.94h0.97
				v-0.79c0.18,0.22,0.39,0.41,0.62,0.59c0.67,0.51,1.47,0.78,2.31,0.78c2.11,0,3.83-1.72,3.83-3.83v-1.24v-0.97H225.02z"/>
		</g>
		<g>
			<path class="st3" d="M217.23,252.42h-5.67c-3.71,0-6.72,2.96-6.82,6.64h19.3C223.95,255.38,220.93,252.42,217.23,252.42z"/>
			<path class="st2" d="M225.09,266.36v1.72c0,0.29-0.23,0.52-0.52,0.52c-0.29,0-0.52-0.23-0.52-0.52v-7.95h-19.31v3.86v5.9h3.94
				v-4.68h7.87v4.68h3.94v-4.74c0-0.29,0.23-0.52,0.52-0.52c0.29,0,0.52,0.23,0.52,0.52v2.46c0,0.93,0.45,1.76,1.14,2.28
				c0.48,0.36,1.08,0.58,1.73,0.58c1.58,0,2.86-1.28,2.86-2.86v-1.24H225.09z"/>
		</g>
		<g>
			<polygon class="st1" points="208.25,254.35 209.43,255.22 210.62,254.36 210.16,255.75 211.34,256.62 209.87,256.61 209.41,258 
				208.97,256.61 207.5,256.6 208.69,255.75 			"/>
			<polygon class="st1" points="213.21,254.35 214.39,255.22 215.58,254.36 215.12,255.75 216.3,256.62 214.84,256.61 214.38,258 
				213.93,256.61 212.47,256.6 213.66,255.75 			"/>
			<polygon class="st1" points="218.18,254.35 219.36,255.22 220.55,254.36 220.09,255.75 221.27,256.62 219.8,256.61 219.34,258 
				218.9,256.61 217.44,256.6 218.63,255.75 			"/>
		</g>
	</g>
	<g>
		<g>
			<g>
				<path class="st1" d="M52.79,157.31l4.92-5.48c2.03,2.23,4.01,3.55,6.5,3.55c2.94,0,4.77-1.78,4.77-5.89V126.6H77v23.24
					c0,4.21-1.22,7.36-3.35,9.49c-2.18,2.18-5.38,3.3-9.24,3.3C58.88,162.63,55.23,160.2,52.79,157.31z"/>
				<path class="st1" d="M85.33,126.6h7.82v35.53h-7.82V126.6z"/>
				<path class="st1" d="M102.03,126.6h8.42l9.34,15.02l9.34-15.02h8.42v35.53h-7.76v-23.19l-10,15.17h-0.2l-9.9-15.02v23.04h-7.66
					V126.6z"/>
				<path class="st1" d="M161.31,126.6h7.82v14.06h14.41V126.6h7.82v35.53h-7.82v-14.26h-14.41v14.26h-7.82V126.6z"/>
				<path class="st1" d="M212.07,126.35h7.21l15.23,35.78h-8.17l-3.25-7.97h-15.02l-3.25,7.97h-7.97L212.07,126.35z M220.29,147.26
					l-4.72-11.52l-4.72,11.52H220.29z"/>
				<path class="st1" d="M239.98,126.6h16.24c4.52,0,8.02,1.27,10.35,3.6c1.98,1.98,3.04,4.77,3.04,8.12v0.1
					c0,5.73-3.1,9.34-7.61,11.01l8.68,12.69h-9.14l-7.61-11.37h-6.14v11.37h-7.82V126.6z M255.72,143.86c3.81,0,5.99-2.03,5.99-5.02
					v-0.1c0-3.35-2.33-5.08-6.14-5.08h-7.76v10.2H255.72z"/>
				<path class="st1" d="M272.62,126.6h8.63l9.29,25.02l9.29-25.02h8.42l-14.36,35.78h-6.9L272.62,126.6z"/>
				<path class="st1" d="M313.73,126.6h26.8v6.95H321.5v7.21h16.75v6.95H321.5v7.46h19.29v6.95h-27.05V126.6z"/>
				<path class="st1" d="M357.74,148.12l-13.65-21.52h9.14l8.48,14.26l8.63-14.26h8.88l-13.65,21.37v14.16h-7.82V148.12z"/>
			</g>
			<g>
				<path class="st2" d="M161.79,87.25h5.31l8.23,20.99l8.19-20.99h5.19l-11.35,27.5h-4.21L161.79,87.25z"/>
				<path class="st2" d="M190.5,100.98v-0.08c0-7.68,5.93-14.12,14.32-14.12c8.39,0,14.24,6.36,14.24,14.04v0.08
					c0,7.68-5.93,14.12-14.32,14.12S190.5,108.66,190.5,100.98z M214.02,100.98v-0.08c0-5.31-3.86-9.71-9.28-9.71
					s-9.21,4.33-9.21,9.64v0.08c0,5.31,3.86,9.71,9.28,9.71C210.24,110.61,214.02,106.28,214.02,100.98z"/>
				<path class="st2" d="M230.09,91.7h-8.66v-4.45h22.16v4.45h-8.66v22.86h-4.84V91.7z"/>
				<path class="st2" d="M248.66,87.25h20.25v4.29h-15.45v7.1h13.69v4.29h-13.69v7.33h15.64v4.29h-20.44V87.25z"/>
			</g>
			<rect x="43.64" y="99.27" class="st1" width="109.67" height="2.86"/>
			<rect x="43.64" y="232.07" class="st1" width="344.71" height="2.86"/>
			<rect x="278.68" y="99.27" class="st1" width="109.67" height="2.86"/>
			<g>
				<path class="st4" d="M92.09,176.48h-2.37v-2.21h7.98v2.21h-2.93l4.21,13.43l4.21-12.16l-0.44-1.28h-2.56v-2.21h8.1v2.21h-2.96
					l4.46,13.37l4.18-13.37h-2.93v-2.21h8.01v2.21h-2.37l-5.46,16.77h-2.62l-4.15-11.85l-4.3,11.85h-2.62L92.09,176.48z"/>
				<path class="st4" d="M121.71,191.04h2.81v-14.56h-2.81v-2.21h15.37v5.33h-2.52v-3.12h-7.29v6.11h7.86v2.21h-7.86v6.23h7.36
					v-3.21h2.56v5.42h-15.46V191.04z"/>
				<path class="st4" d="M141.37,191.04h2.81v-14.56h-2.81v-2.21h9.04c4.08,0,6.95,1.75,6.95,4.89c0,1.84-0.97,3.58-3.71,4.36
					c3.09,0.65,4.36,2.49,4.36,4.68c0,3.18-2.71,5.05-7.17,5.05h-9.48V191.04z M150.07,182.56c2.87,0,4.58-1.09,4.58-3.12
					c0-1.96-1.68-2.99-4.24-2.99h-3.55v6.11H150.07z M150.79,191.07c2.74,0,4.52-1.09,4.52-3.15c0-2.09-1.75-3.24-4.64-3.24h-3.8
					v6.39H150.79z"/>
				<path class="st4" d="M162.01,191.04h2.81v-14.56h-2.81v-2.21h15.37v5.33h-2.52v-3.12h-7.29v6.11h7.86v2.21h-7.86v6.23h7.36
					v-3.21h2.56v5.42h-15.46V191.04z"/>
				<path class="st4" d="M181.68,191.04h2.81v-14.56h-2.81v-2.21h8.88c4.55,0,7.57,2.24,7.57,5.8c0,2.56-1.53,4.46-4.18,5.21
					l3.21,5.77h2.62v2.21h-4.49l-4.02-7.26h-4.05v5.05H190v2.21h-8.32V191.04z M190.62,183.84c3.37,0,4.74-1.56,4.74-3.68
					c0-2.12-1.4-3.68-4.74-3.68h-3.4v7.36H190.62z"/>
				<path class="st4" d="M211.54,183.84c0-6.05,3.93-9.94,10.1-9.94c2.81,0,5.42,0.81,6.8,1.47v4.99h-2.65v-3.49
					c-1.06-0.37-2.62-0.65-4.02-0.65c-4.3,0-7.39,2.65-7.39,7.51c0,5.08,3.4,7.54,7.51,7.54c2.49,0,4.86-0.94,6.55-1.9v2.62
					c-1.4,0.75-3.8,1.65-6.76,1.65C215.68,193.63,211.54,190.01,211.54,183.84z"/>
				<path class="st4" d="M232.36,183.78c0-5.74,3.96-9.88,9.76-9.88c5.8,0,9.76,4.15,9.76,9.88s-3.96,9.85-9.76,9.85
					C236.32,193.63,232.36,189.51,232.36,183.78z M249.07,183.78c0-4.61-2.87-7.57-6.95-7.57c-4.05,0-6.92,2.99-6.92,7.57
					c0,4.61,2.84,7.54,6.92,7.54C246.17,191.32,249.07,188.36,249.07,183.78z"/>
				<path class="st4" d="M257.76,186.92v-10.44h-2.77v-2.21h8.29v2.21h-2.77v10.22c0,3.24,2.21,4.46,4.83,4.46
					c2.62,0,4.77-1.25,4.77-4.49v-10.19h-2.87v-2.21h8.2v2.21h-2.77v10.26c0,4.4-2.93,6.89-7.42,6.89
					C261.19,193.63,257.76,191.57,257.76,186.92z"/>
				<path class="st4" d="M278.81,191.04h2.81v-14.56h-2.81v-2.21h5.61l10.26,14.56v-12.34h-2.77v-2.21h8.17v2.21h-2.77v16.77h-2.46
					l-10.63-14.99v12.78h2.77v2.21h-8.17V191.04z"/>
				<path class="st4" d="M307.23,191.04h2.99v-14.56h-4.61v3.15h-2.49v-5.36h16.96v5.36h-2.52v-3.15h-4.58v14.56h2.99v2.21h-8.73
					V191.04z"/>
				<path class="st4" d="M327.9,191.04h2.87v-4.61l-6.27-9.94h-2.43v-2.21h8.35v2.18h-2.93l4.64,7.51l4.64-7.51h-2.9v-2.18h8.2v2.21
					h-2.37l-6.2,9.82v4.74h2.87v2.21h-8.48V191.04z"/>
				<path class="st4" d="M91.28,211.19c0-6.05,3.93-9.94,10.1-9.94c2.81,0,5.42,0.81,6.8,1.47v4.99h-2.65v-3.49
					c-1.06-0.37-2.62-0.65-4.02-0.65c-4.3,0-7.39,2.65-7.39,7.51c0,5.08,3.4,7.54,7.51,7.54c2.49,0,4.86-0.94,6.55-1.9v2.62
					c-1.4,0.75-3.8,1.65-6.76,1.65C95.43,220.97,91.28,217.36,91.28,211.19z"/>
				<path class="st4" d="M112.1,211.12c0-5.74,3.96-9.88,9.76-9.88c5.8,0,9.76,4.15,9.76,9.88s-3.96,9.85-9.76,9.85
					C116.06,220.97,112.1,216.86,112.1,211.12z M128.81,211.12c0-4.61-2.87-7.57-6.95-7.57c-4.05,0-6.92,2.99-6.92,7.57
					c0,4.61,2.84,7.54,6.92,7.54C125.91,218.67,128.81,215.71,128.81,211.12z"/>
				<path class="st4" d="M135.08,218.39h2.65l0.53-14.56h-2.65v-2.21h6.92l5.55,14l5.58-14h6.92v2.21h-2.68l0.56,14.56h2.65v2.21
					h-7.82v-2.21h2.65l-0.53-14.21l-6.2,15.06h-2.21l-6.2-15.06l-0.53,14.21h2.65v2.21h-7.82V218.39z"/>
				<path class="st4" d="M164.78,218.39h2.65l0.53-14.56h-2.65v-2.21h6.92l5.55,14l5.58-14h6.92v2.21h-2.68l0.56,14.56h2.65v2.21
					h-7.82v-2.21h2.65l-0.53-14.21l-6.2,15.06h-2.21l-6.2-15.06l-0.53,14.21h2.65v2.21h-7.82V218.39z"/>
				<path class="st4" d="M194.61,218.39h2.81v-14.56h-2.81v-2.21h8.32v2.21h-2.77v14.56h2.77v2.21h-8.32V218.39z"/>
				<path class="st4" d="M207.08,219.98v-4.43h2.49v2.71c0.94,0.25,2.37,0.5,3.87,0.5c2.62,0,4.49-0.87,4.49-2.87
					c0-4.86-10.54-2.59-10.54-9.41c0-3.49,2.77-5.24,6.8-5.24c2.03,0,4.24,0.44,5.8,0.97v4.36h-2.52v-2.74
					c-0.81-0.19-2.03-0.37-3.18-0.37c-2.59,0-4.24,1-4.24,2.77c0,4.55,10.54,2.43,10.54,9.48c0,3.77-3.05,5.27-6.98,5.27
					C211.29,220.97,208.86,220.48,207.08,219.98z"/>
				<path class="st4" d="M224.85,219.98v-4.43h2.49v2.71c0.94,0.25,2.37,0.5,3.87,0.5c2.62,0,4.49-0.87,4.49-2.87
					c0-4.86-10.54-2.59-10.54-9.41c0-3.49,2.77-5.24,6.8-5.24c2.03,0,4.24,0.44,5.8,0.97v4.36h-2.52v-2.74
					c-0.81-0.19-2.03-0.37-3.18-0.37c-2.59,0-4.24,1-4.24,2.77c0,4.55,10.54,2.43,10.54,9.48c0,3.77-3.05,5.27-6.98,5.27
					C229.06,220.97,226.63,220.48,224.85,219.98z"/>
				<path class="st4" d="M242.4,218.39h2.81v-14.56h-2.81v-2.21h8.32v2.21h-2.77v14.56h2.77v2.21h-8.32V218.39z"/>
				<path class="st4" d="M254.34,211.12c0-5.74,3.96-9.88,9.76-9.88c5.8,0,9.76,4.15,9.76,9.88s-3.96,9.85-9.76,9.85
					C258.3,220.97,254.34,216.86,254.34,211.12z M271.04,211.12c0-4.61-2.87-7.57-6.95-7.57c-4.05,0-6.92,2.99-6.92,7.57
					c0,4.61,2.84,7.54,6.92,7.54C268.15,218.67,271.04,215.71,271.04,211.12z"/>
				<path class="st4" d="M277.47,218.39h2.81v-14.56h-2.81v-2.21h5.61l10.26,14.56v-12.34h-2.77v-2.21h8.17v2.21h-2.77v16.77h-2.46
					l-10.63-14.99v12.78h2.77v2.21h-8.17V218.39z"/>
				<path class="st4" d="M302.34,218.39h2.81v-14.56h-2.81v-2.21h15.37v5.33h-2.52v-3.12h-7.29v6.11h7.86v2.21h-7.86v6.23h7.36
					v-3.21h2.56v5.42h-15.46V218.39z"/>
				<path class="st4" d="M322.01,218.39h2.81v-14.56h-2.81v-2.21h8.88c4.55,0,7.57,2.24,7.57,5.8c0,2.56-1.53,4.46-4.18,5.21
					l3.21,5.77h2.62v2.21h-4.49l-4.02-7.26h-4.05v5.05h2.77v2.21h-8.32V218.39z M330.95,211.19c3.37,0,4.74-1.56,4.74-3.68
					c0-2.12-1.4-3.68-4.74-3.68h-3.4v7.36H330.95z"/>
			</g>
		</g>
	</g>
</g>
</svg>
