<?xml version="1.0" encoding="UTF-8"?>
<svg width="864px" height="374px" viewBox="0 0 864 374" version="1.1" xmlns="http://www.w3.org/2000/svg" xmlns:xlink="http://www.w3.org/1999/xlink">
    <!-- Generator: Sketch 59.1 (86144) - https://sketch.com -->
    <title>Map</title>
    <desc>Created with Sketch.</desc>
    <defs>
        <linearGradient x1="50%" y1="-67.3861714%" x2="50%" y2="100%" id="linearGradient-1">
            <stop stop-color="#567189" offset="0%"></stop>
            <stop stop-color="#2B3E50" offset="100%"></stop>
        </linearGradient>
        <linearGradient x1="50%" y1="-67.3861714%" x2="50%" y2="100%" id="linearGradient-2">
            <stop stop-color="#567189" offset="0%"></stop>
            <stop stop-color="#2B3E50" offset="100%"></stop>
        </linearGradient>
        <linearGradient x1="50%" y1="-67.3861714%" x2="50%" y2="100%" id="linearGradient-3">
            <stop stop-color="#567189" offset="0%"></stop>
            <stop stop-color="#2B3E50" offset="100%"></stop>
        </linearGradient>
        <linearGradient x1="50%" y1="-67.3861714%" x2="50%" y2="100%" id="linearGradient-4">
            <stop stop-color="#567189" offset="0%"></stop>
            <stop stop-color="#2B3E50" offset="100%"></stop>
        </linearGradient>
        <linearGradient x1="50%" y1="-67.3861714%" x2="50%" y2="100%" id="linearGradient-5">
            <stop stop-color="#567189" offset="0%"></stop>
            <stop stop-color="#2B3E50" offset="100%"></stop>
        </linearGradient>
        <linearGradient x1="50%" y1="-67.3861714%" x2="50%" y2="100%" id="linearGradient-6">
            <stop stop-color="#567189" offset="0%"></stop>
            <stop stop-color="#2B3E50" offset="100%"></stop>
        </linearGradient>
        <linearGradient x1="50%" y1="-67.3861714%" x2="50%" y2="100%" id="linearGradient-7">
            <stop stop-color="#567189" offset="0%"></stop>
            <stop stop-color="#2B3E50" offset="100%"></stop>
        </linearGradient>
        <linearGradient x1="50%" y1="-67.3861714%" x2="50%" y2="100%" id="linearGradient-8">
            <stop stop-color="#567189" offset="0%"></stop>
            <stop stop-color="#2B3E50" offset="100%"></stop>
        </linearGradient>
        <linearGradient x1="50%" y1="-67.3861714%" x2="50%" y2="100%" id="linearGradient-9">
            <stop stop-color="#567189" offset="0%"></stop>
            <stop stop-color="#2B3E50" offset="100%"></stop>
        </linearGradient>
        <linearGradient x1="50%" y1="-67.3861714%" x2="50%" y2="100%" id="linearGradient-10">
            <stop stop-color="#567189" offset="0%"></stop>
            <stop stop-color="#2B3E50" offset="100%"></stop>
        </linearGradient>
        <linearGradient x1="50%" y1="-67.3861714%" x2="50%" y2="100%" id="linearGradient-11">
            <stop stop-color="#567189" offset="0%"></stop>
            <stop stop-color="#2B3E50" offset="100%"></stop>
        </linearGradient>
        <linearGradient x1="50%" y1="-67.3861714%" x2="50%" y2="100%" id="linearGradient-12">
            <stop stop-color="#567189" offset="0%"></stop>
            <stop stop-color="#2B3E50" offset="100%"></stop>
        </linearGradient>
        <linearGradient x1="50%" y1="-67.3861714%" x2="50%" y2="100%" id="linearGradient-13">
            <stop stop-color="#567189" offset="0%"></stop>
            <stop stop-color="#2B3E50" offset="100%"></stop>
        </linearGradient>
        <linearGradient x1="50%" y1="-67.3861714%" x2="50%" y2="100%" id="linearGradient-14">
            <stop stop-color="#567189" offset="0%"></stop>
            <stop stop-color="#2B3E50" offset="100%"></stop>
        </linearGradient>
        <linearGradient x1="50%" y1="-67.3861714%" x2="50%" y2="100%" id="linearGradient-15">
            <stop stop-color="#567189" offset="0%"></stop>
            <stop stop-color="#2B3E50" offset="100%"></stop>
        </linearGradient>
        <polygon id="path-16" points="2.27373675e-13 0 874.916658 0 874.916658 378.395229 2.27373675e-13 378.395229"></polygon>
    </defs>
    <g id="Page-1" stroke="none" stroke-width="1" fill="none" fill-rule="evenodd">
        <g id="Map-Page" transform="translate(-290.000000, -399.000000)">
            <g id="Map" transform="translate(233.000000, 372.000000)">
                <g id="Group-35">
                    <polygon id="Fill-1" fill="url(#linearGradient-1)" points="451.281946 197.69493 451.281946 182.653417 427.837601 132.292713 425.599832 132.292713 425.599832 191.218974 436.692067 197.69493"></polygon>
                    <path d="M353.848732,263.069213 C353.848732,261.554782 355.081901,260.322836 356.597834,260.322836 L377.202749,260.322836 C378.718683,260.322836 379.951851,261.554782 379.951851,263.069213 L379.951851,269.52006 L389.038813,269.52006 C389.438611,269.52006 389.840765,269.608729 390.20129,269.777435 L402.800819,275.651542 L409.963409,275.651542 L409.963409,244.236915 C409.963409,243.285884 410.444895,242.416459 411.250774,241.910341 L426.532641,232.324702 L417.129926,225.960954 L407.8898,225.960954 C406.374652,225.960954 405.140698,224.729008 405.140698,223.214577 L405.140698,207.188292 L390.377233,197.621484 L376.10625,197.621484 C374.590316,197.621484 373.357148,196.388753 373.357148,194.875107 L373.357148,173.287801 C373.357148,172.431716 373.765586,171.611727 374.450505,171.096192 L395.931205,154.891 C396.405622,154.533971 396.99393,154.337016 397.587736,154.337016 L405.732148,154.337016 L420.101313,137.249845 L420.101313,132.293027 L271.957686,132.293027 L162.65809,268.625526 L353.848732,268.625526 L353.848732,263.069213 Z" id="Fill-2" fill="url(#linearGradient-2)"></path>
                    <path d="M509.917471,138.009492 L479.174652,127.266451 L479.174652,167.369045 L486.61765,181.890316 C486.815586,182.274809 486.920052,182.707952 486.920052,183.14188 L486.920052,185.212648 L503.122475,185.212648 L503.122475,176.791472 C503.122475,176.249258 503.280352,175.724308 503.580397,175.272333 L509.917471,165.734559 L509.917471,138.009492 Z" id="Fill-4" fill="url(#linearGradient-3)"></path>
                    <path d="M417.973272,220.468201 C418.525449,220.468201 419.058775,220.631414 419.515126,220.941362 L433.07684,230.119753 L445.512994,237.986946 L459.501997,237.986946 L459.501997,229.608143 L452.087276,222.200772 C451.568088,221.682884 451.282181,220.993151 451.282181,220.258691 L451.282181,203.187998 L435.947689,203.187998 C435.460705,203.187998 434.98079,203.058526 434.56057,202.812136 L402.140013,183.884107 L394.418963,188.062524 L394.418963,193.693381 L409.385862,203.392014 C410.170534,203.901271 410.639452,204.761279 410.639452,205.696617 L410.639452,220.468201 L417.973272,220.468201 Z" id="Fill-6" fill="url(#linearGradient-4)"></path>
                    <path d="M403.57803,178.362242 L420.101706,188.009087 L420.101706,145.788644 L409.117864,158.849627 C408.594749,159.472663 407.827356,159.829692 407.013622,159.829692 L398.508685,159.829692 L378.855745,174.655418 L378.855745,192.128652 L388.920601,192.128652 L388.920601,186.426389 C388.920601,185.417292 389.471993,184.492155 390.360346,184.011932 L400.881553,178.3183 C401.719636,177.862402 402.752513,177.879665 403.57803,178.362242" id="Fill-10" fill="url(#linearGradient-5)"></path>
                    <path d="M459.501997,179.300169 L459.501997,168.032177 C459.501997,166.517747 460.735166,165.285801 462.2511,165.285801 L473.676369,165.285801 L473.676369,122.310496 L462.470242,122.310496 C462.118357,122.310496 461.774327,122.243014 461.44522,122.110403 L446.521522,122.110403 L436.329421,132.293184 L433.900785,132.293184 L455.784425,179.300169 L459.501997,179.300169 Z" id="Fill-12" fill="url(#linearGradient-6)"></path>
                    <path d="M374.453568,302.04799 L374.453568,265.815433 L359.346858,265.815433 L359.346858,271.371746 C359.346858,272.886176 358.113689,274.118122 356.597756,274.118122 L159.95368,274.118122 C159.461984,274.118122 158.988353,273.985512 158.564991,273.73206 L57.1938061,400.175249 L296.043671,330.560874 L388.92013,330.560874 L388.92013,304.794367 L377.202671,304.794367 C375.686737,304.794367 374.453568,303.56242 374.453568,302.04799" id="Fill-14" fill="url(#linearGradient-7)"></path>
                    <path d="M465.000202,170.77824 L465.000202,182.046232 C465.000202,183.560663 463.767033,184.792609 462.2511,184.792609 L456.780386,184.792609 L456.780386,189.081665 L463.346813,189.081665 C464.078075,189.081665 464.79127,189.379843 465.304174,189.900085 L470.346028,195.008346 C470.856575,195.525449 471.137769,196.210474 471.137769,196.937087 L471.137769,205.140122 L481.421768,205.140122 L481.421768,183.803913 L474.744592,170.77824 L465.000202,170.77824 Z" id="Fill-16" fill="url(#linearGradient-8)"></path>
                    <path d="M890.432664,90.9057559 L875.04476,79.5436027 L875.04476,68.3289692 L849.701178,40.4132259 L839.662242,45.4265406 L839.662242,56.0879754 L826.613431,56.0879754 L809.515586,39.007081 L796.74954,39.007081 L792.8034,45.5764143 L761.788813,45.5764143 L747.321465,54.7736379 L738.415945,54.7736379 L729.867807,37.6935282 L720.423463,37.6935282 L710.558898,48.861081 L702.337511,48.861081 L693.789374,40.9781948 L683.813274,40.9781948 L683.813274,80.8210602 L664.513005,100.10298 L650.388117,100.10298 L650.275011,99.9994019 L625.399562,77.1095282 L589.968346,77.1095282 L589.899226,77.0820644 L561.449158,65.8454598 L556.770186,51.0974164 L556.770186,41.6349712 L540.886658,41.6349712 L529.707237,52.802524 L514.257282,52.802524 L494.777929,33.3432673 L487.193548,46.6027745 L487.193548,73.5486545 L480.044311,84.5867352 L487.193548,94.326172 L487.193548,103.187553 L469.481474,116.817429 L476.425707,116.817429 C477.94164,116.817429 479.174809,118.05016 479.174809,119.563806 L479.174809,121.44782 L513.573934,133.468319 C514.675146,133.852812 515.415833,134.894866 515.415833,136.060899 L515.415833,166.562944 C515.415833,167.104373 515.25717,167.629323 514.957911,168.082083 L508.620052,177.620642 L508.620052,207.99557 L516.568885,210.52459 C517.714868,210.889466 518.483831,211.940936 518.483831,213.141495 L518.483831,290.330377 L526.196241,303.031977 C526.457013,303.461982 526.594468,303.95476 526.594468,304.45617 L526.594468,320.879503 C526.594468,322.393934 525.361299,323.62588 523.845366,323.62588 L517.388903,323.62588 L517.388903,328.097766 L534.577861,333.822 C535.702637,334.196292 536.458247,335.243839 536.458247,336.427919 L536.458247,345.013093 L566.207462,345.013093 L578.308225,332.924327 L563.346825,317.976975 L563.346825,302.604327 L574.638566,282.03318 L618.272318,262.898781 L634.765361,260.921389 L634.817202,260.930021 L661.259639,264.891866 L686.263117,292.500015 L706.439172,297.701652 L754.243705,285.925189 L775.090541,265.74952 L775.090541,251.958 L787.158315,239.902975 L824.291618,239.902975 L834.156183,248.443423 L853.619042,248.443423 L890.23787,224.272953 L900.691528,195.554483 L900.691528,158.015435 L911.21195,147.504659 L911.21195,134.35736 L920.419087,125.816913 L920.419087,107.089762 L905.514239,90.9057559 L890.432664,90.9057559 Z" id="Fill-18" fill="url(#linearGradient-9)"></path>
                    <polygon id="Fill-20" fill="url(#linearGradient-10)" points="489.111636 328.319438 489.111636 335.880606 500.746623 345.012701 530.960043 345.012701 530.960043 338.406488 513.933674 332.737181"></polygon>
                    <path d="M489.111636,322.740841 L511.889912,326.798416 L511.889912,322.162532 L491.393391,305.030634 C490.767381,304.507253 490.408427,303.739052 490.408427,302.92377 L490.408427,285.08566 L479.250999,285.08566 L479.43401,291.802513 L484.238656,296.049197 C484.827749,296.569439 485.166281,297.320377 485.166281,298.105841 L485.166281,309.263977 L488.593234,314.019917 C488.932552,314.48994 489.111636,315.044708 489.111636,315.624586 L489.111636,322.740841 Z" id="Fill-22" fill="url(#linearGradient-11)"></path>
                    <path d="M459.501997,243.479857 L444.714969,243.479857 C444.192639,243.479857 443.684448,243.332337 443.243806,243.052991 L431.556979,235.65896 L415.461378,245.754641 L415.461378,278.398076 C415.461378,279.912507 414.228209,281.144453 412.712276,281.144453 L402.191068,281.144453 C401.79127,281.144453 401.389116,281.055784 401.028591,280.887078 L388.429062,275.01297 L379.951616,275.01297 L379.951616,299.301927 L391.098048,299.301927 L399.632047,295.588825 C399.980004,295.437382 400.34917,295.359699 400.729331,295.359699 L410.988981,295.359699 L426.185233,280.179298 C426.697352,279.667687 427.405835,279.374217 428.129241,279.374217 L432.306306,279.374217 L440.65101,270.854171 L440.65101,255.404625 C440.65101,253.890979 441.884179,252.658248 443.400112,252.658248 L459.501997,252.658248 L459.501997,243.479857 Z" id="Fill-24" fill="url(#linearGradient-12)"></path>
                    <path d="M433.46305,284.867049 L429.26792,284.867049 L414.071667,300.048235 C413.559549,300.559061 412.851066,300.852531 412.127659,300.852531 L401.30248,300.852531 L394.418728,303.846082 L394.418728,330.560482 L440.650774,330.560482 L440.650774,278.707318 L435.428265,284.040782 C434.914576,284.565732 434.198238,284.867049 433.46305,284.867049" id="Fill-26" fill="url(#linearGradient-13)"></path>
                    <path d="M473.750673,285.085504 L465.21746,285.085504 L446.1489,300.926605 L446.1489,330.560795 L466.351661,330.560795 L466.351661,299.420021 C466.351661,298.603955 466.7114,297.834185 467.338981,297.310804 L473.933685,291.813342 L473.750673,285.085504 Z" id="Fill-28" fill="url(#linearGradient-14)"></path>
                    <path d="M479.668077,310.149958 L479.668077,299.344143 L476.666057,296.690358 L471.84963,300.705561 L471.84963,330.561031 L482.333921,330.561031 L483.613431,331.56542 L483.613431,316.509782 L480.186479,311.754627 C479.847161,311.28382 479.668077,310.729052 479.668077,310.149958" id="Fill-30" fill="url(#linearGradient-15)"></path>
                    <path d="M505.0375,212.619919 C503.891517,212.255043 503.122554,211.203573 503.122554,210.003014 L503.122554,190.705401 L486.92013,190.705401 L486.92013,207.886735 C486.92013,209.400381 485.686176,210.633111 484.171028,210.633111 L468.388824,210.633111 C466.87289,210.633111 465.639722,209.400381 465.639722,207.886735 L465.639722,198.063337 L462.19706,194.574654 L456.780543,194.574654 L456.780543,219.12177 L464.194479,226.52914 C464.714452,227.047029 465.000359,227.736761 465.000359,228.470436 L465.000359,255.404546 C465.000359,256.918977 463.76719,258.150923 462.251257,258.150923 L446.149372,258.150923 L446.149372,293.7832 L462.466472,280.227084 C462.958954,279.818267 463.582608,279.593064 464.224327,279.593064 L493.157451,279.593064 C494.673384,279.593064 495.906553,280.82501 495.906553,282.339441 L495.906553,301.640977 L515.637253,318.133362 L521.096185,318.133362 L521.096185,305.224606 L513.383775,292.522221 C513.123788,292.093002 512.985548,291.601008 512.985548,291.098813 L512.985548,215.149724 L505.0375,212.619919 Z" id="Fill-8" fill="#BE1E2D"></path>
                    <g id="Group-34">
                        <mask id="mask-17" fill="white">
                            <use xlink:href="#path-16"></use>
                        </mask>
                        <g id="Clip-33"></g>
                        <path d="M920.418851,125.81707 L911.211715,134.357517 L911.211715,147.504816 L900.691293,158.015592 L900.691293,195.55464 L890.237635,224.27311 L853.618806,248.442795 L834.155947,248.442795 L824.291382,239.903132 L787.158079,239.903132 L775.091091,251.958157 L775.091091,265.749677 L754.244255,285.925346 L706.438936,297.701809 L686.263667,292.500172 L661.260189,264.892023 L634.817751,260.929393 L634.765126,260.921546 L618.272083,262.898938 L574.63833,282.033337 L563.346589,302.604484 L563.346589,317.977132 L578.307989,332.9237 L566.207226,345.01325 L536.458012,345.01325 L536.458012,336.427292 C536.458012,335.243996 535.702401,334.196449 534.578411,333.822157 L517.388667,328.097923 L517.388667,323.626037 L523.84513,323.626037 C525.361064,323.626037 526.594232,322.394091 526.594232,320.87966 L526.594232,304.456327 C526.594232,303.954917 526.457563,303.462139 526.196791,303.032134 L518.483595,290.330534 L518.483595,213.141652 C518.483595,211.941093 517.714632,210.889623 516.568649,210.524747 L508.620601,207.995727 L508.620601,177.620799 L514.957675,168.081455 C515.256934,167.62948 515.415597,167.10453 515.415597,166.563101 L515.415597,136.061056 C515.415597,134.894238 514.675696,133.852969 513.573698,133.468476 L479.174574,121.447977 L479.174574,119.563963 C479.174574,118.050317 477.941405,116.817586 476.425471,116.817586 L469.481239,116.817586 L487.193312,103.18771 L487.193312,94.326329 L480.044075,84.5868921 L487.193312,73.5488114 L487.193312,46.6029315 L494.778478,33.3426395 L514.257047,52.802681 L529.707002,52.802681 L540.886423,41.6351282 L556.769951,41.6351282 L556.769951,51.0967886 L561.448923,65.8456168 L589.89899,77.0822213 L589.96811,77.1096851 L625.399327,77.1096851 L650.274776,99.9995588 L650.387882,100.102352 L664.512769,100.102352 L683.813824,80.8212172 L683.813824,40.9783518 L693.789138,40.9783518 L702.338061,48.8612379 L710.558662,48.8612379 L720.423227,37.6929004 L729.867572,37.6929004 L738.415709,54.7737948 L747.32123,54.7737948 L761.788577,45.5765712 L792.803164,45.5765712 L796.749304,39.0072379 L809.516136,39.0072379 L826.613196,56.0881323 L839.662792,56.0881323 L839.662792,45.4266975 L849.700943,40.4133828 L875.044524,68.3283414 L875.044524,79.5429749 L890.432428,90.9059128 L905.514004,90.9059128 L920.418851,107.089919 L920.418851,125.81707 Z M530.959807,345.01325 L500.746387,345.01325 L489.1114,335.88037 L489.1114,328.319203 L513.933438,332.736946 L530.959807,338.407037 L530.959807,345.01325 Z M485.166046,309.264056 L485.166046,298.105919 C485.166046,297.319671 484.828299,296.569517 484.239206,296.049275 L479.433775,291.802592 L479.250763,285.085739 L490.408191,285.085739 L490.408191,302.923849 C490.408191,303.73913 490.767145,304.507331 491.393155,305.030712 L511.890462,322.162611 L511.890462,326.798495 L489.1114,322.740919 L489.1114,315.624664 C489.1114,315.044787 488.932316,314.490018 488.593784,314.019996 L485.166046,309.264056 Z M483.613196,331.56542 L482.333685,330.561031 L471.85018,330.561031 L471.85018,300.705561 L476.665821,296.690358 L479.667841,299.344143 L479.667841,310.149958 C479.667841,310.729052 479.846925,311.28382 480.186243,311.754627 L483.613196,316.510567 L483.613196,331.56542 Z M466.351975,299.419472 L466.351975,330.561031 L446.149215,330.561031 L446.149215,300.92684 L465.217774,285.085739 L473.750987,285.085739 L473.933999,291.813577 L467.339295,297.311039 C466.711715,297.83442 466.351975,298.603406 466.351975,299.419472 L466.351975,299.419472 Z M440.65101,255.404468 L440.65101,270.854014 L432.306306,279.37406 L428.129241,279.37406 C427.405835,279.37406 426.697352,279.66753 426.186019,280.179141 L410.988981,295.359542 L400.729331,295.359542 C400.34917,295.359542 399.980004,295.437225 399.632047,295.588669 L391.098048,299.30177 L379.951616,299.30177 L379.951616,275.012813 L388.429062,275.012813 L401.028591,280.886921 C401.389116,281.055627 401.79127,281.144296 402.191068,281.144296 L412.712276,281.144296 C414.228209,281.144296 415.461378,279.91235 415.461378,278.397919 L415.461378,245.755269 L431.556979,235.658803 L443.243806,243.052834 C443.684448,243.33218 444.192639,243.4797 444.714969,243.4797 L459.501997,243.4797 L459.501997,252.658091 L443.400112,252.658091 C441.884179,252.658091 440.65101,253.890822 440.65101,255.404468 L440.65101,255.404468 Z M440.65101,330.561031 L394.418963,330.561031 L394.418963,303.846631 L401.30193,300.852296 L412.127895,300.852296 C412.851302,300.852296 413.559785,300.558826 414.071903,300.048 L429.268155,284.866813 L433.463285,284.866813 C434.197689,284.866813 434.914026,284.566281 435.428501,284.041331 L440.65101,278.707867 L440.65101,330.561031 Z M388.920759,330.561031 L296.043514,330.561031 L57.1944345,400.175406 L158.564834,273.732217 C158.988196,273.985669 159.461827,274.118279 159.953523,274.118279 L356.597599,274.118279 C358.113532,274.118279 359.346701,272.886333 359.346701,271.371902 L359.346701,265.81559 L374.453411,265.81559 L374.453411,302.048147 C374.453411,303.562577 375.687365,304.794524 377.202513,304.794524 L388.920759,304.794524 L388.920759,330.561031 Z M271.957451,132.293027 L420.101077,132.293027 L420.101077,137.249845 L405.731912,154.337016 L397.5875,154.337016 C396.993694,154.337016 396.405386,154.533971 395.930969,154.891 L374.450269,171.096192 C373.766136,171.611727 373.357697,172.431716 373.357697,173.287801 L373.357697,194.875107 C373.357697,196.389538 374.590866,197.621484 376.1068,197.621484 L390.376997,197.621484 L405.141248,207.188292 L405.141248,223.214577 C405.141248,224.729008 406.374417,225.960954 407.89035,225.960954 L417.12969,225.960954 L426.532406,232.324702 L411.250539,241.910341 C410.444659,242.416459 409.963173,243.285884 409.963173,244.236915 L409.963173,275.651542 L402.800583,275.651542 L390.20184,269.777435 C389.841315,269.608729 389.438375,269.52006 389.039363,269.52006 L379.951616,269.52006 L379.951616,263.069213 C379.951616,261.554782 378.718447,260.322836 377.202513,260.322836 L356.597599,260.322836 C355.081665,260.322836 353.848496,261.554782 353.848496,263.069213 L353.848496,268.625526 L162.65864,268.625526 L271.957451,132.293027 Z M425.599282,132.293027 L427.837837,132.293027 L451.282181,182.653731 L451.282181,197.695244 L436.691517,197.695244 L425.599282,191.219288 L425.599282,132.293027 Z M481.421768,183.803286 L481.421768,205.140279 L471.137769,205.140279 L471.137769,196.937244 C471.137769,196.210631 470.856575,195.525606 470.346028,195.008503 L465.304174,189.900242 C464.79127,189.38 464.078075,189.081822 463.346813,189.081822 L456.780386,189.081822 L456.780386,184.792766 L462.2511,184.792766 C463.767033,184.792766 465.000202,183.56082 465.000202,182.046389 L465.000202,170.778397 L474.744592,170.778397 L481.421768,183.803286 Z M503.580319,175.272254 C503.280274,175.725014 503.122397,176.24918 503.122397,176.791393 L503.122397,185.212569 L486.919973,185.212569 L486.919973,183.141801 C486.919973,182.707873 486.815507,182.274731 486.617572,181.890238 L479.174574,167.368967 L479.174574,127.266372 L509.917392,138.009414 L509.917392,165.73448 L503.580319,175.272254 Z M390.360503,184.01201 C389.47215,184.492234 388.920759,185.41737 388.920759,186.426468 L388.920759,192.128731 L378.855902,192.128731 L378.855902,174.655497 L398.508842,159.82977 L407.012994,159.82977 C407.827513,159.82977 408.594906,159.472741 409.118021,158.849706 L420.101077,145.788722 L420.101077,188.009165 L403.578187,178.362321 C402.752671,177.879743 401.719794,177.86248 400.88171,178.318379 L390.360503,184.01201 Z M409.385862,203.392014 L394.418963,193.693381 L394.418963,188.062524 L402.140013,183.884107 L434.56057,202.812136 C434.98079,203.058526 435.460705,203.187998 435.947689,203.187998 L451.282181,203.187998 L451.282181,220.258691 C451.282181,220.993151 451.568088,221.682884 452.087276,222.200772 L459.501997,229.608143 L459.501997,237.986946 L445.512208,237.986946 L433.076055,230.119753 L419.515126,220.941362 C419.058775,220.631414 418.525449,220.468201 417.973272,220.468201 L410.639452,220.468201 L410.639452,205.696617 C410.639452,204.761279 410.170534,203.901271 409.385862,203.392014 L409.385862,203.392014 Z M513.383618,292.522143 L521.096028,305.224528 L521.096028,318.133283 L515.637096,318.133283 L495.906396,301.640898 L495.906396,282.339362 C495.906396,280.824931 494.673227,279.592985 493.157294,279.592985 L464.22417,279.592985 C463.582451,279.592985 462.958797,279.818188 462.466315,280.227006 L446.149215,293.783122 L446.149215,258.150845 L462.2511,258.150845 C463.767033,258.150845 465.000202,256.918898 465.000202,255.404468 L465.000202,228.470358 C465.000202,227.736683 464.714295,227.04695 464.195108,226.529062 L456.780386,219.121691 L456.780386,194.574575 L462.196903,194.574575 L465.639565,198.063259 L465.639565,207.886656 C465.639565,209.401087 466.872733,210.633033 468.388667,210.633033 L484.170871,210.633033 C485.686019,210.633033 486.919973,209.401087 486.919973,207.886656 L486.919973,190.705323 L503.122397,190.705323 L503.122397,210.002936 C503.122397,211.203495 503.89136,212.254965 505.037343,212.61984 L512.98539,215.149646 L512.98539,291.098735 C512.98539,291.600929 513.123631,292.092923 513.383618,292.522143 L513.383618,292.522143 Z M436.329421,132.293027 L446.521522,122.110246 L461.44522,122.110246 C461.774327,122.242857 462.118357,122.310339 462.470242,122.310339 L473.676369,122.310339 L473.676369,165.285644 L462.2511,165.285644 C460.735166,165.285644 459.501997,166.51759 459.501997,168.03202 L459.501997,179.300012 L455.784425,179.300012 L433.900785,132.293027 L436.329421,132.293027 Z M909.443649,87.0594159 C908.480678,86.012654 907.111625,85.4131592 905.686804,85.4131592 L892.244479,85.4131592 L880.542729,76.7730578 L880.542729,68.1768983 C880.542729,66.9080723 880.073025,65.691035 879.219232,64.7509894 L853.57325,36.5025422 C852.607922,35.4385174 851.229443,34.8288217 849.789699,34.8280371 C849.002671,34.8280371 848.214071,35.014006 847.50873,35.3663269 L836.986737,40.6228921 C835.245377,41.4923166 834.164587,43.2405816 834.164587,45.1842317 L834.164587,50.5953787 L828.891023,50.5953787 L813.287904,35.0085133 C812.324933,34.045712 811.04228,33.5144843 809.678725,33.5144843 L796.52702,33.5144843 C794.744031,33.5144843 793.065507,34.4631613 792.148092,35.9909315 L789.68961,40.0838176 L761.674686,40.0838176 C760.700718,40.0838176 759.752671,40.3600246 758.932653,40.8818362 L745.720467,49.2810412 L741.8136,49.2810412 L734.676145,35.0202834 C733.805857,33.2806499 732.056643,32.2001468 730.110278,32.2001468 L720.245714,32.2001468 C718.78162,32.2001468 717.385862,32.8294594 716.417392,33.9264408 L708.078187,43.3684843 L704.487074,43.3684843 L697.404601,36.8376002 C696.458909,35.9658217 695.228882,35.4855981 693.942303,35.4855981 L683.421095,35.4855981 C680.606014,35.4855981 678.315619,37.7737224 678.315619,40.5860122 L678.315619,78.5464325 L662.236513,94.6095981 L652.534538,94.6095981 L629.011647,72.9657948 C628.066741,72.0955857 626.838285,71.6169315 625.553276,71.6169315 L591.015911,71.6169315 L565.89697,61.6962337 L562.268155,50.3058321 L562.268155,41.2427886 C562.268155,38.4304988 559.97776,36.1423745 557.16268,36.1423745 L540.723833,36.1423745 C539.359493,36.1423745 538.077626,36.6736023 537.113869,37.6364035 L527.42996,47.3099273 L516.534874,47.3099273 L498.302042,29.0959563 C497.193761,27.9879894 495.591427,27.4418528 494.014228,27.6474387 C492.44724,27.856948 491.043627,28.8001323 490.258954,30.1717513 L482.368245,43.9671944 C481.927603,44.7377493 481.695108,45.6126665 481.695108,46.4985692 L481.695108,71.9268797 L475.281059,81.8295298 C474.137433,83.5950578 474.205768,85.9208466 475.450718,87.6165381 L481.695108,96.1248135 L481.695108,100.48606 L460.731239,116.617493 L446.358932,116.617493 C444.995377,116.617493 443.71351,117.147936 442.748968,118.111522 L434.051593,126.800273 L271.768941,126.800273 C270.209807,126.800273 268.757496,127.497068 267.784313,128.711751 L52.1250898,397.711513 C50.7261894,399.457424 50.622509,401.878159 51.8666741,403.737064 C52.8162926,405.154194 54.402132,406.000078 56.1097172,406.000078 C56.5935592,406.000078 57.0750449,405.931027 57.5400359,405.796847 L296.828972,336.053784 L480.432092,336.053784 L497.45689,349.416869 C498.350741,350.119157 499.471589,350.506004 500.610503,350.506004 L566.369816,350.506004 C567.733371,350.506004 569.015238,349.975561 569.97978,349.011975 L582.474057,336.530085 C584.464408,334.541708 584.464408,331.305691 582.474057,329.317314 L568.844794,315.701563 L568.844794,304.011414 L578.560907,286.311408 L619.678838,268.261435 L634.683438,266.463735 L658.500875,270.032455 L682.264901,296.272124 C682.937253,297.01443 683.805969,297.539381 684.775224,297.788909 L705.160211,303.044689 C705.973945,303.254199 706.835592,303.261261 707.659538,303.058029 L755.663577,291.2337 C756.540148,291.016343 757.346813,290.570646 757.993245,289.944472 L779.03566,269.579695 C780.02298,268.623956 780.589295,267.288433 780.589295,265.916029 L780.589295,254.232157 L789.434336,245.395886 L822.241338,245.395886 L830.665373,252.689478 C831.593784,253.493774 832.781396,253.935548 834.009066,253.935548 L853.736625,253.935548 C854.741225,253.935548 855.713622,253.643648 856.55092,253.090449 L893.376324,228.78423 C894.285099,228.185519 894.988869,227.293339 895.36039,226.272472 L905.881598,197.366464 C906.085817,196.803849 906.189497,196.217693 906.189497,195.623691 L906.189497,160.291161 L915.215193,151.272845 C916.179735,150.310043 916.709919,149.029447 916.709919,147.667244 L916.709919,136.752358 L924.284874,129.724772 C925.321679,128.76354 925.917056,127.402122 925.917056,125.98813 L925.917056,106.936122 C925.917056,105.653172 925.438712,104.426718 924.568425,103.482749 L909.443649,87.0594159 Z" id="Fill-32" fill="#DADADA" mask="url(#mask-17)"></path>
                    </g>
                </g>
            </g>
        </g>
    </g>
</svg>