<?xml version="1.0" encoding="utf-8"?>
<!-- Generator: Adobe Illustrator 24.0.3, SVG Export Plug-In . SVG Version: 6.00 Build 0)  -->
<svg version="1.1" xmlns="http://www.w3.org/2000/svg" xmlns:xlink="http://www.w3.org/1999/xlink" x="0px" y="0px"
	 viewBox="0 0 720 360" style="enable-background:new 0 0 720 360;" xml:space="preserve">
<style type="text/css">
	.st0{fill:#123256;}
	.st1{fill:#FFFFFF;}
	.st2{fill:#E12229;}
	.st3{fill:#1A3F71;}
	.st4{fill:#A7A9AC;}
</style>
<g id="background">
</g>
<g id="Layer_1">
	<g>
		<g>
			<g>
				<g>
					<g>
						<g>
							<polygon class="st1" points="368.04,213.96 368.04,237.39 355.1,237.39 355.1,213.96 327.39,213.96 327.39,286.93 
								355.1,286.93 355.1,263.25 368.04,263.25 368.04,286.93 395.76,286.93 395.76,213.96 							"/>
							<rect x="330.76" y="217.33" class="st2" width="20.96" height="8.68"/>
							<rect x="330.76" y="228.58" class="st2" width="20.96" height="9.62"/>
							<rect x="371.42" y="228.58" class="st2" width="20.96" height="9.62"/>
							<rect x="371.42" y="217.33" class="st2" width="20.96" height="8.68"/>
							<g>
								<rect x="330.76" y="240.76" class="st2" width="61.62" height="8.68"/>
								<polygon class="st3" points="330.76,283.56 351.73,283.56 351.73,259.88 371.42,259.88 371.42,283.56 392.38,283.56 
									392.38,252 330.76,252 								"/>
							</g>
						</g>
						<g>
							<g>
								<g>
									<path class="st1" d="M156.31,156.39l6.19-6.89c2.55,2.81,5.04,4.47,8.17,4.47c3.7,0,6-2.23,6-7.4v-28.79h10.08v29.23
										c0,5.3-1.53,9.25-4.21,11.93c-2.74,2.75-6.77,4.15-11.62,4.15C163.97,163.09,159.38,160.03,156.31,156.39z"/>
									<path class="st1" d="M197.23,117.78h9.83v44.68h-9.83V117.78z"/>
									<path class="st1" d="M218.23,117.78h10.6l11.74,18.89l11.74-18.89h10.6v44.68h-9.77v-29.17l-12.57,19.08h-0.26
										l-12.45-18.89v28.98h-9.64V117.78z"/>
									<path class="st1" d="M292.79,117.78h9.83v17.68h18.13v-17.68h9.83v44.68h-9.83v-17.94h-18.13v17.94h-9.83V117.78z"/>
									<path class="st1" d="M356.62,117.46h9.06l19.15,45h-10.28l-4.08-10.02h-18.89l-4.08,10.02h-10.02L356.62,117.46z
										 M366.96,143.75l-5.94-14.49l-5.94,14.49H366.96z"/>
									<path class="st1" d="M391.73,117.78h20.42c5.68,0,10.08,1.6,13.02,4.53c2.49,2.49,3.83,6,3.83,10.21v0.13
										c0,7.21-3.89,11.74-9.57,13.85l10.91,15.96h-11.49l-9.57-14.3h-7.72v14.3h-9.83V117.78z M411.52,139.48
										c4.79,0,7.53-2.55,7.53-6.32v-0.13c0-4.21-2.94-6.38-7.72-6.38h-9.77v12.83H411.52z"/>
									<path class="st1" d="M432.78,117.78h10.85l11.68,31.47l11.68-31.47h10.6l-18.06,45h-8.68L432.78,117.78z"/>
									<path class="st1" d="M484.49,117.78h33.7v8.74h-23.94v9.06h21.06v8.74h-21.06v9.38h24.25v8.74h-34.02V117.78z"/>
									<path class="st1" d="M539.83,144.84l-17.17-27.06h11.49l10.66,17.94l10.85-17.94h11.17l-17.17,26.87v17.81h-9.83V144.84z"
										/>
								</g>
							</g>
						</g>
						<g>
							<path class="st2" d="M255.7,271.8c4.68-3.48,16.27-9.48,16.27-16.69c0-2.58-1.62-4.8-5.76-4.8c-2.4,0-4.08,0.72-4.98,1.14
								c0.24,0.42,0.36,0.84,0.36,1.38c0,1.68-1.14,3.06-3.12,3.06c-1.98,0-3.12-1.38-3.12-3.06c0-3.54,5.34-6.42,11.46-6.42
								c5.82,0,10.32,2.58,10.32,8.28c0,7.14-7.32,12.48-13.87,16.27h14.95v4.44h-21.67L255.7,271.8z"/>
							<path class="st2" d="M283.18,261.24c0-8.04,3.84-14.83,13.26-14.83c9.36,0,13.27,6.78,13.27,14.83
								c0,7.98-3.9,14.83-13.27,14.83C287.02,276.07,283.18,269.22,283.18,261.24z M304.37,261.24c0-6.3-2.28-10.86-7.92-10.86
								c-5.7,0-7.98,4.56-7.98,10.86c0,6.24,2.28,10.8,7.98,10.8C302.09,272.04,304.37,267.48,304.37,261.24z"/>
							<path class="st2" d="M413.71,271.8c4.68-3.48,16.27-9.48,16.27-16.69c0-2.58-1.62-4.8-5.76-4.8c-2.4,0-4.08,0.72-4.98,1.14
								c0.24,0.42,0.36,0.84,0.36,1.38c0,1.68-1.14,3.06-3.12,3.06c-1.98,0-3.12-1.38-3.12-3.06c0-3.54,5.34-6.42,11.46-6.42
								c5.82,0,10.32,2.58,10.32,8.28c0,7.14-7.32,12.48-13.87,16.27h14.95v4.44h-21.67L413.71,271.8z"/>
							<path class="st2" d="M441.2,261.24c0-8.04,3.84-14.83,13.26-14.83c9.36,0,13.27,6.78,13.27,14.83
								c0,7.98-3.9,14.83-13.27,14.83C445.04,276.07,441.2,269.22,441.2,261.24z M462.39,261.24c0-6.3-2.28-10.86-7.92-10.86
								c-5.7,0-7.98,4.56-7.98,10.86c0,6.24,2.28,10.8,7.98,10.8C460.11,272.04,462.39,267.48,462.39,261.24z"/>
						</g>
					</g>
				</g>
				<g>
					<polygon class="st2" points="485.83,104.56 237.32,104.56 243.6,88.81 237.32,73.07 485.83,73.07 479.54,88.81 					"/>
					<g>
						<path class="st1" d="M269.68,94.43h2.17V83.2h-2.17v-2.43h7.76c4.75,0,6.55,2.61,6.55,5.07c0,1.87-1.06,3.59-3.25,4.3
							l2.43,4.28h1.98v2.43h-4.07l-3.3-5.89h-2.88v3.46h2.17v2.43h-7.39V94.43z M277.49,88.59c2.56,0,3.41-1.29,3.41-2.69
							c0-1.4-0.87-2.69-3.41-2.69h-2.59v5.39H277.49z"/>
						<path class="st1" d="M296.09,94.43h2.17V83.2h-2.17v-2.43h13.26v4.73h-2.83v-2.3h-5.2v4.36h6.05v2.43h-6.05v4.44h5.28v-2.4
							h2.85v4.83h-13.36V94.43z"/>
						<path class="st1" d="M321.2,89.43h7.6v2.51h-7.6V89.43z"/>
						<path class="st1" d="M340.22,94.43h2.17V83.2h-2.17v-2.43h13.26v4.73h-2.83v-2.3h-5.2v4.36h6.05v2.43h-6.05v4.44h5.28v-2.4
							h2.85v4.83h-13.36V94.43z"/>
						<path class="st1" d="M364.99,94.43h2.17V83.2h-2.17v-2.43h7.79v2.43h-2.56v11.22h5.2v-2.59h2.83v5.02h-13.26V94.43z"/>
						<path class="st1" d="M388.95,94.43h2.17V83.2h-2.17v-2.43h13.26v4.73h-2.83v-2.3h-5.2v4.36h6.05v2.43h-6.05v4.44h5.28v-2.4
							h2.85v4.83h-13.36V94.43z"/>
						<path class="st1" d="M413.56,88.91c0-5.33,3.56-8.45,8.58-8.45c2.59,0,4.99,0.82,5.99,1.29v4.62h-2.93v-2.96
							c-0.77-0.21-1.9-0.4-2.9-0.4c-3.3,0-5.57,2.03-5.57,5.73c0,3.8,2.43,5.78,5.76,5.78c2.19,0,4.2-0.84,5.62-1.69v2.93
							c-1.11,0.58-3.2,1.4-5.89,1.4C416.94,97.17,413.56,94.08,413.56,88.91z"/>
						<path class="st1" d="M442.24,94.43h2.38V83.2h-3.01v2.46h-2.77v-4.89h14.63v4.89h-2.77V83.2h-3.01v11.22h2.38v2.43h-7.82
							V94.43z"/>
					</g>
				</g>
				<polygon class="st1" points="237.47,87.02 96.64,87.02 96.64,90.61 237.47,90.61 238.19,88.81 				"/>
				<polygon class="st1" points="626.51,87.02 485.67,87.02 484.96,88.81 485.67,90.61 626.51,90.61 				"/>
			</g>
			<g>
				<rect x="413.35" y="230.96" class="st1" width="213.15" height="3.59"/>
				<rect x="96.64" y="230.96" class="st1" width="213.15" height="3.59"/>
			</g>
		</g>
		<g>
			<path class="st4" d="M43.98,181.69h-2.62v-3.54h10.32v3.54h-3.31l4.51,14.75l4.7-13.67l-0.39-1.08h-2.97v-3.54h10.52v3.54h-3.35
				l4.7,14.6l4.43-14.6h-3.27v-3.54h10.32v3.54H74.9l-6.47,19.91h-4.36l-4.5-12.98l-4.74,12.98h-4.35L43.98,181.69z"/>
			<path class="st4" d="M81.01,198.06h3.16v-16.37h-3.16v-3.54h19.34v6.89h-4.12v-3.35h-7.59v6.36h8.82v3.54h-8.82v6.47h7.7v-3.5
				h4.16v7.05H81.01V198.06z"/>
			<path class="st4" d="M105.59,198.06h3.16v-16.37h-3.16v-3.54h11.67c5.2,0,8.74,2.23,8.74,6.12c0,2.23-1.16,4.31-4.43,5.32
				c3.58,0.88,5.12,3.04,5.12,5.7c0,3.82-3.12,6.32-8.93,6.32h-12.17V198.06z M116.96,188.01c2.93,0,4.62-1.16,4.62-3.24
				c0-2.04-1.69-3.12-4.31-3.12h-4.12v6.36H116.96z M117.65,198.1c2.85,0,4.59-1.16,4.59-3.31c0-2.04-1.58-3.39-4.7-3.39h-4.39v6.7
				H117.65z"/>
			<path class="st4" d="M131.57,198.06h3.16v-16.37h-3.16v-3.54h19.33v6.89h-4.12v-3.35h-7.59v6.36h8.82v3.54h-8.82v6.47h7.7v-3.5
				h4.16v7.05h-19.48V198.06z"/>
			<path class="st4" d="M156.15,198.06h3.16v-16.37h-3.16v-3.54h11.33c6.93,0,9.55,3.81,9.55,7.39c0,2.73-1.54,5.24-4.74,6.28
				l3.54,6.24h2.89v3.54h-5.93l-4.82-8.59h-4.2v5.05h3.16v3.54h-10.79V198.06z M167.55,189.55c3.74,0,4.97-1.89,4.97-3.93
				c0-2.04-1.27-3.93-4.97-3.93h-3.77v7.86H167.55z"/>
			<path class="st4" d="M192.95,190.01c0-7.78,5.2-12.32,12.52-12.32c3.78,0,7.28,1.19,8.74,1.89v6.74h-4.28V182
				c-1.11-0.31-2.77-0.58-4.24-0.58c-4.81,0-8.12,2.96-8.12,8.35c0,5.55,3.54,8.44,8.4,8.44c3.19,0,6.12-1.23,8.2-2.46v4.27
				c-1.62,0.85-4.66,2.04-8.59,2.04C197.88,202.06,192.95,197.56,192.95,190.01z"/>
			<path class="st4" d="M218.85,189.89c0-7.2,5.09-12.21,12.21-12.21c7.08,0,12.21,5.01,12.21,12.21c0,7.2-5.12,12.17-12.21,12.17
				C223.93,202.06,218.85,197.1,218.85,189.89z M238.68,189.89c0-5.24-3.27-8.47-7.63-8.47c-4.39,0-7.63,3.24-7.63,8.47
				c0,5.28,3.24,8.43,7.63,8.43C235.41,198.33,238.68,195.17,238.68,189.89z"/>
			<path class="st4" d="M250.14,193.63v-11.94h-3.16v-3.54h10.78v3.54h-3.16v11.52c0,3.58,2.35,4.85,5.24,4.85s5.2-1.31,5.2-4.89
				v-11.48h-3.27v-3.54h10.59v3.54h-3.16v11.55c0,5.55-3.66,8.82-9.51,8.82C254.76,202.06,250.14,199.72,250.14,193.63z"/>
			<path class="st4" d="M276.58,198.06h3.16v-16.37h-3.16v-3.54h7.74l11.25,16.21v-12.67h-3.16v-3.54h10.55v3.54h-3.16v19.91h-3.97
				l-11.86-16.94v13.4h3.16v3.54h-10.56V198.06z"/>
			<path class="st4" d="M311.68,198.06h3.46v-16.37h-4.39v3.58h-4.05v-7.12h21.34v7.12h-4.04v-3.58h-4.39v16.37h3.47v3.54h-11.4
				V198.06z"/>
			<path class="st4" d="M337.46,198.06h3.31v-4.54l-7.59-11.83h-2.7v-3.54h10.94v3.5h-3.35l4.93,7.86l4.97-7.86h-3.35v-3.5h10.67
				v3.54h-2.58l-7.47,11.6v4.77h3.31v3.54h-11.09V198.06z"/>
			<path class="st4" d="M367.4,190.01c0-7.78,5.2-12.32,12.52-12.32c3.78,0,7.28,1.19,8.74,1.89v6.74h-4.28V182
				c-1.11-0.31-2.77-0.58-4.24-0.58c-4.81,0-8.12,2.96-8.12,8.35c0,5.55,3.54,8.44,8.4,8.44c3.19,0,6.12-1.23,8.2-2.46v4.27
				c-1.62,0.85-4.66,2.04-8.59,2.04C372.33,202.06,367.4,197.56,367.4,190.01z"/>
			<path class="st4" d="M393.3,189.89c0-7.2,5.09-12.21,12.21-12.21c7.08,0,12.21,5.01,12.21,12.21c0,7.2-5.12,12.17-12.21,12.17
				C398.38,202.06,393.3,197.1,393.3,189.89z M413.13,189.89c0-5.24-3.27-8.47-7.63-8.47c-4.39,0-7.63,3.24-7.63,8.47
				c0,5.28,3.23,8.43,7.63,8.43C409.86,198.33,413.13,195.17,413.13,189.89z"/>
			<path class="st4" d="M422.01,198.06h2.89l0.58-16.37h-2.93v-3.54h9.82l5.74,15.6l5.73-15.6h9.82v3.54h-2.93l0.58,16.37h2.89v3.54
				h-9.86v-3.54h2.89l-0.54-15.72l-6.74,17.22h-3.7l-6.74-17.22l-0.54,15.72h2.89v3.54h-9.86V198.06z"/>
			<path class="st4" d="M459.08,198.06h2.89l0.58-16.37h-2.93v-3.54h9.82l5.74,15.6l5.73-15.6h9.82v3.54h-2.93l0.58,16.37h2.89v3.54
				h-9.86v-3.54h2.89l-0.54-15.72l-6.74,17.22h-3.7l-6.74-17.22l-0.54,15.72h2.89v3.54h-9.86V198.06z"/>
			<path class="st4" d="M496.23,198.06h3.16v-16.37h-3.16v-3.54h10.79v3.54h-3.16v16.37h3.16v3.54h-10.79V198.06z"/>
			<path class="st4" d="M512.1,200.79v-5.85h4v3.08c0.85,0.19,2.27,0.5,4.05,0.5c2.5,0,4.85-0.62,4.85-2.93
				c0-5.35-12.6-2.46-12.6-11.09c0-4.93,4.16-6.82,8.78-6.82c2.66,0,5.55,0.62,7.47,1.27v5.74h-4.08v-3.16
				c-0.77-0.11-2.04-0.31-3.27-0.31c-2.27,0-4.59,0.65-4.59,2.81c0,5.01,12.6,2.31,12.6,11.25c0,5.12-4.2,6.78-8.9,6.78
				C517.34,202.06,514.34,201.37,512.1,200.79z"/>
			<path class="st4" d="M534.38,200.79v-5.85h4v3.08c0.85,0.19,2.27,0.5,4.05,0.5c2.5,0,4.85-0.62,4.85-2.93
				c0-5.35-12.6-2.46-12.6-11.09c0-4.93,4.16-6.82,8.78-6.82c2.66,0,5.55,0.62,7.47,1.27v5.74h-4.08v-3.16
				c-0.77-0.11-2.04-0.31-3.27-0.31c-2.27,0-4.59,0.65-4.59,2.81c0,5.01,12.6,2.31,12.6,11.25c0,5.12-4.2,6.78-8.9,6.78
				C539.61,202.06,536.61,201.37,534.38,200.79z"/>
			<path class="st4" d="M556.57,198.06h3.16v-16.37h-3.16v-3.54h10.79v3.54h-3.16v16.37h3.16v3.54h-10.79V198.06z"/>
			<path class="st4" d="M571.72,189.89c0-7.2,5.09-12.21,12.21-12.21c7.08,0,12.21,5.01,12.21,12.21c0,7.2-5.12,12.17-12.21,12.17
				C576.8,202.06,571.72,197.1,571.72,189.89z M591.56,189.89c0-5.24-3.27-8.47-7.63-8.47c-4.39,0-7.63,3.24-7.63,8.47
				c0,5.28,3.24,8.43,7.63,8.43C588.28,198.33,591.56,195.17,591.56,189.89z"/>
			<path class="st4" d="M600.51,198.06h3.16v-16.37h-3.16v-3.54h7.74l11.25,16.21v-12.67h-3.16v-3.54h10.55v3.54h-3.16v19.91h-3.97
				l-11.86-16.94v13.4h3.16v3.54h-10.55V198.06z"/>
			<path class="st4" d="M631.49,198.06h3.16v-16.37h-3.16v-3.54h19.33v6.89h-4.12v-3.35h-7.59v6.36h8.82v3.54h-8.82v6.47h7.7v-3.5
				h4.16v7.05h-19.48V198.06z"/>
			<path class="st4" d="M656.07,198.06h3.16v-16.37h-3.16v-3.54h11.33c6.93,0,9.55,3.81,9.55,7.39c0,2.73-1.54,5.24-4.74,6.28
				l3.54,6.24h2.89v3.54h-5.93l-4.82-8.59h-4.2v5.05h3.16v3.54h-10.79V198.06z M667.48,189.55c3.74,0,4.97-1.89,4.97-3.93
				c0-2.04-1.27-3.93-4.97-3.93h-3.77v7.86H667.48z"/>
		</g>
	</g>
</g>
</svg>
