<?xml version="1.0" encoding="utf-8"?>
<!-- Generator: Adobe Illustrator 24.0.3, SVG Export Plug-In . SVG Version: 6.00 Build 0)  -->
<svg version="1.1" xmlns="http://www.w3.org/2000/svg" xmlns:xlink="http://www.w3.org/1999/xlink" x="0px" y="0px"
	 viewBox="0 0 720 360" style="enable-background:new 0 0 720 360;" xml:space="preserve">
<style type="text/css">
	.st0{fill:#123256;}
	.st1{fill:#FFFFFF;}
	.st2{fill:#E12229;}
	.st3{fill:#1A3F71;}
	.st4{fill:#A7A9AC;}
</style>
<g id="background">
</g>
<g id="Layer_1">
	<g>
		<g>
			<g>
				<g>
					<polygon class="st0" points="389.13,47.1 365.52,47.1 362.3,47.1 362.3,50.32 362.3,67.07 357.7,67.07 357.7,50.32 357.7,47.1 
						354.48,47.1 330.87,47.1 327.65,47.1 327.65,50.32 327.65,112.51 327.65,115.72 330.87,115.72 354.48,115.72 357.7,115.72 
						357.7,112.51 357.7,95.54 362.3,95.54 362.3,112.51 362.3,115.72 365.52,115.72 389.13,115.72 392.35,115.72 392.35,112.51 
						392.35,50.32 392.35,47.1 					"/>
					<polygon class="st1" points="365.52,50.32 365.52,70.28 354.48,70.28 354.48,50.32 330.87,50.32 330.87,112.51 354.48,112.51 
						354.48,92.33 365.52,92.33 365.52,112.51 389.13,112.51 389.13,50.32 					"/>
					<rect x="333.74" y="53.19" class="st2" width="17.87" height="7.4"/>
					<rect x="333.74" y="62.78" class="st2" width="17.87" height="8.2"/>
					<rect x="368.39" y="62.78" class="st2" width="17.87" height="8.2"/>
					<rect x="368.39" y="53.19" class="st2" width="17.87" height="7.4"/>
					<g>
						<rect x="333.74" y="73.16" class="st2" width="52.52" height="7.4"/>
						<polygon class="st3" points="333.74,109.63 351.61,109.63 351.61,89.45 368.39,89.45 368.39,109.63 386.26,109.63 
							386.26,82.74 333.74,82.74 						"/>
					</g>
				</g>
				<g>
					<g>
						<path class="st1" d="M369.66,306.42v-6.81c-0.06-2.18-0.95-4.23-2.52-5.75c-1.57-1.53-3.64-2.37-5.83-2.37h-6.08
							c-2.19,0-4.26,0.84-5.83,2.37c-1.56,1.53-2.46,3.57-2.52,5.75v12.67h1.03h4.22h1.04v-1.04v-3.98h6.36v3.98v1.04h1.04h4.22
							h1.04v-0.84c0.2,0.23,0.42,0.44,0.67,0.63c0.72,0.55,1.58,0.84,2.48,0.84c2.27,0,4.11-1.84,4.11-4.11v-1.33v-1.04H369.66z"/>
					</g>
					<g>
						<path class="st3" d="M361.32,292.52h-6.08c-3.97,0-7.2,3.17-7.31,7.11h20.69C368.52,295.68,365.29,292.52,361.32,292.52z"/>
						<path class="st2" d="M369.75,307.45v1.85c0,0.31-0.25,0.56-0.56,0.56c-0.31,0-0.56-0.25-0.56-0.56v-8.53h-20.7v4.13v6.32h4.22
							v-5.02h8.44v5.02h4.22v-5.08c0-0.31,0.25-0.56,0.56-0.56s0.56,0.25,0.56,0.56v2.64c0,1,0.48,1.88,1.22,2.45
							c0.51,0.39,1.15,0.62,1.85,0.62c1.7,0,3.07-1.37,3.07-3.07v-1.33H369.75z"/>
					</g>
					<g>
						<polygon class="st1" points="351.69,294.59 352.96,295.51 354.23,294.6 353.74,296.09 355,297.02 353.43,297.01 352.94,298.5 
							352.46,297.01 350.89,297 352.17,296.08 						"/>
						<polygon class="st1" points="357.01,294.59 358.28,295.51 359.55,294.6 359.06,296.09 360.32,297.02 358.76,297.01 
							358.26,298.5 357.78,297.01 356.22,297 357.49,296.08 						"/>
						<polygon class="st1" points="362.34,294.59 363.6,295.51 364.88,294.6 364.38,296.09 365.65,297.02 364.08,297.01 
							363.58,298.5 363.11,297.01 361.54,297 362.81,296.08 						"/>
					</g>
				</g>
				<g>
					<g>
						<g>
							<path class="st0" d="M185.07,198.78l5.28-5.87c2.18,2.39,4.3,3.81,6.96,3.81c3.16,0,5.11-1.9,5.11-6.31v-24.53h8.59v24.91
								c0,4.51-1.31,7.89-3.59,10.17c-2.34,2.34-5.77,3.54-9.9,3.54C191.6,204.5,187.68,201.88,185.07,198.78z"/>
							<path class="st0" d="M219.94,165.87h8.38v38.08h-8.38V165.87z"/>
							<path class="st0" d="M237.84,165.87h9.03l10.01,16.1l10.01-16.1h9.03v38.08h-8.32v-24.86l-10.72,16.26h-0.22l-10.61-16.1
								v24.7h-8.21V165.87z"/>
							<path class="st0" d="M301.38,165.87h8.38v15.07h15.45v-15.07h8.38v38.08h-8.38v-15.29h-15.45v15.29h-8.38V165.87z"/>
							<path class="st0" d="M355.78,165.6h7.72l16.32,38.35h-8.76l-3.48-8.54h-16.1l-3.48,8.54h-8.54L355.78,165.6z M364.6,188.01
								l-5.06-12.35l-5.06,12.35H364.6z"/>
							<path class="st0" d="M385.71,165.87h17.41c4.84,0,8.59,1.36,11.1,3.86c2.12,2.12,3.26,5.11,3.26,8.7v0.11
								c0,6.15-3.32,10.01-8.16,11.8l9.3,13.6h-9.79l-8.16-12.18h-6.58v12.18h-8.38V165.87z M402.57,184.37
								c4.08,0,6.42-2.18,6.42-5.38v-0.11c0-3.59-2.5-5.44-6.58-5.44h-8.32v10.93H402.57z"/>
							<path class="st0" d="M420.69,165.87h9.25l9.95,26.82l9.95-26.82h9.03l-15.39,38.35h-7.4L420.69,165.87z"/>
							<path class="st0" d="M464.75,165.87h28.72v7.45h-20.4v7.72h17.95v7.45h-17.95v8h20.67v7.45h-28.99V165.87z"/>
							<path class="st0" d="M511.92,188.94l-14.63-23.06h9.79l9.08,15.29l9.25-15.29h9.52l-14.63,22.9v15.18h-8.38V188.94z"/>
						</g>
						<rect x="175.26" y="277.7" class="st0" width="369.47" height="3.06"/>
						<g>
							<path class="st4" d="M227.19,219.34h-2.54v-2.37h8.55v2.37h-3.14l4.51,14.4l4.51-13.03l-0.47-1.37h-2.74v-2.37h8.69v2.37
								h-3.17l4.78,14.33l4.48-14.33h-3.14v-2.37h8.59v2.37h-2.54l-5.85,17.97h-2.81l-4.44-12.7l-4.61,12.7h-2.81L227.19,219.34z"/>
							<path class="st4" d="M258.93,234.94h3.01v-15.6h-3.01v-2.37h16.47v5.71h-2.71v-3.34h-7.82v6.55h8.42v2.37h-8.42v6.68h7.88
								v-3.44h2.74v5.81h-16.57V234.94z"/>
							<path class="st4" d="M280.01,234.94h3.01v-15.6h-3.01v-2.37h9.69c4.38,0,7.45,1.87,7.45,5.25c0,1.97-1.04,3.84-3.98,4.68
								c3.31,0.7,4.68,2.67,4.68,5.01c0,3.41-2.91,5.41-7.68,5.41h-10.16V234.94z M289.34,225.85c3.07,0,4.91-1.17,4.91-3.34
								c0-2.1-1.8-3.21-4.54-3.21h-3.81v6.55H289.34z M290.1,234.97c2.94,0,4.84-1.17,4.84-3.37c0-2.24-1.87-3.47-4.98-3.47h-4.08
								v6.85H290.1z"/>
							<path class="st4" d="M302.13,234.94h3.01v-15.6h-3.01v-2.37h16.47v5.71h-2.71v-3.34h-7.82v6.55h8.42v2.37h-8.42v6.68h7.88
								v-3.44h2.74v5.81h-16.57V234.94z"/>
							<path class="st4" d="M323.21,234.94h3.01v-15.6h-3.01v-2.37h9.52c4.88,0,8.12,2.41,8.12,6.21c0,2.74-1.64,4.78-4.48,5.58
								l3.44,6.18h2.81v2.37h-4.81l-4.31-7.78h-4.34v5.41h2.97v2.37h-8.92V234.94z M332.8,227.22c3.61,0,5.08-1.67,5.08-3.94
								s-1.5-3.94-5.08-3.94h-3.64v7.88H332.8z"/>
							<path class="st4" d="M355.22,227.22c0-6.48,4.21-10.66,10.83-10.66c3.01,0,5.81,0.87,7.28,1.57v5.35h-2.84v-3.74
								c-1.14-0.4-2.81-0.7-4.31-0.7c-4.61,0-7.92,2.84-7.92,8.05c0,5.45,3.64,8.09,8.05,8.09c2.67,0,5.21-1,7.02-2.04v2.81
								c-1.5,0.8-4.08,1.77-7.25,1.77C359.66,237.71,355.22,233.84,355.22,227.22z"/>
							<path class="st4" d="M377.54,227.15c0-6.15,4.24-10.59,10.46-10.59c6.21,0,10.46,4.44,10.46,10.59
								c0,6.15-4.24,10.56-10.46,10.56C381.78,237.71,377.54,233.3,377.54,227.15z M395.44,227.15c0-4.94-3.07-8.12-7.45-8.12
								c-4.34,0-7.42,3.21-7.42,8.12c0,4.94,3.04,8.09,7.42,8.09C392.34,235.24,395.44,232.07,395.44,227.15z"/>
							<path class="st4" d="M404.76,230.53v-11.19h-2.97v-2.37h8.89v2.37h-2.97v10.96c0,3.47,2.37,4.78,5.18,4.78
								c2.81,0,5.11-1.34,5.11-4.81v-10.93h-3.07v-2.37h8.79v2.37h-2.97v10.99c0,4.71-3.14,7.38-7.95,7.38
								C408.44,237.71,404.76,235.51,404.76,230.53z"/>
							<path class="st4" d="M427.32,234.94h3.01v-15.6h-3.01v-2.37h6.01l10.99,15.6v-13.23h-2.97v-2.37h8.75v2.37h-2.97v17.97h-2.64
								l-11.39-16.07v13.7h2.97v2.37h-8.75V234.94z"/>
							<path class="st4" d="M457.79,234.94h3.21v-15.6h-4.94v3.37h-2.67v-5.75h18.18v5.75h-2.71v-3.37h-4.91v15.6h3.21v2.37h-9.36
								V234.94z"/>
							<path class="st4" d="M479.94,234.94h3.07V230l-6.72-10.66h-2.61v-2.37h8.95v2.34h-3.14l4.98,8.05l4.98-8.05h-3.11v-2.34h8.79
								v2.37h-2.54l-6.65,10.52v5.08h3.07v2.37h-9.09V234.94z"/>
							<path class="st4" d="M226.32,256.54c0-6.48,4.21-10.66,10.83-10.66c3.01,0,5.81,0.87,7.28,1.57v5.35h-2.84v-3.74
								c-1.14-0.4-2.81-0.7-4.31-0.7c-4.61,0-7.92,2.84-7.92,8.05c0,5.45,3.64,8.09,8.05,8.09c2.67,0,5.21-1,7.02-2.04v2.81
								c-1.5,0.8-4.08,1.77-7.25,1.77C230.77,267.03,226.32,263.15,226.32,256.54z"/>
							<path class="st4" d="M248.64,256.47c0-6.15,4.24-10.59,10.46-10.59c6.21,0,10.46,4.44,10.46,10.59
								c0,6.15-4.24,10.56-10.46,10.56C252.89,267.03,248.64,262.62,248.64,256.47z M266.55,256.47c0-4.94-3.07-8.12-7.45-8.12
								c-4.34,0-7.42,3.21-7.42,8.12c0,4.94,3.04,8.09,7.42,8.09C263.44,264.55,266.55,261.38,266.55,256.47z"/>
							<path class="st4" d="M273.27,264.25h2.84l0.57-15.6h-2.84v-2.37h7.42l5.95,15l5.98-15h7.42v2.37h-2.87l0.6,15.6h2.84v2.37
								h-8.39v-2.37h2.84l-0.57-15.24l-6.65,16.14h-2.37l-6.65-16.14l-0.57,15.24h2.84v2.37h-8.39V264.25z"/>
							<path class="st4" d="M305.11,264.25h2.84l0.57-15.6h-2.84v-2.37h7.42l5.95,15l5.98-15h7.42v2.37h-2.87l0.6,15.6H333v2.37
								h-8.39v-2.37h2.84l-0.57-15.24l-6.65,16.14h-2.37l-6.65-16.14l-0.57,15.24h2.84v2.37h-8.39V264.25z"/>
							<path class="st4" d="M337.08,264.25h3.01v-15.6h-3.01v-2.37H346v2.37h-2.97v15.6H346v2.37h-8.92V264.25z"/>
							<path class="st4" d="M350.44,265.96v-4.74h2.67v2.91c1,0.27,2.54,0.53,4.14,0.53c2.81,0,4.81-0.94,4.81-3.07
								c0-5.21-11.29-2.77-11.29-10.09c0-3.74,2.97-5.61,7.28-5.61c2.17,0,4.54,0.47,6.21,1.04v4.68h-2.71v-2.94
								c-0.87-0.2-2.17-0.4-3.41-0.4c-2.77,0-4.54,1.07-4.54,2.97c0,4.88,11.29,2.61,11.29,10.16c0,4.04-3.27,5.65-7.48,5.65
								C354.95,267.03,352.35,266.49,350.44,265.96z"/>
							<path class="st4" d="M369.48,265.96v-4.74h2.67v2.91c1,0.27,2.54,0.53,4.14,0.53c2.81,0,4.81-0.94,4.81-3.07
								c0-5.21-11.29-2.77-11.29-10.09c0-3.74,2.97-5.61,7.28-5.61c2.17,0,4.54,0.47,6.21,1.04v4.68h-2.71v-2.94
								c-0.87-0.2-2.17-0.4-3.41-0.4c-2.77,0-4.54,1.07-4.54,2.97c0,4.88,11.29,2.61,11.29,10.16c0,4.04-3.27,5.65-7.48,5.65
								C374,267.03,371.39,266.49,369.48,265.96z"/>
							<path class="st4" d="M388.29,264.25h3.01v-15.6h-3.01v-2.37h8.92v2.37h-2.97v15.6h2.97v2.37h-8.92V264.25z"/>
							<path class="st4" d="M401.09,256.47c0-6.15,4.24-10.59,10.46-10.59c6.21,0,10.46,4.44,10.46,10.59
								c0,6.15-4.24,10.56-10.46,10.56C405.33,267.03,401.09,262.62,401.09,256.47z M419,256.47c0-4.94-3.07-8.12-7.45-8.12
								c-4.34,0-7.42,3.21-7.42,8.12c0,4.94,3.04,8.09,7.42,8.09C415.89,264.55,419,261.38,419,256.47z"/>
							<path class="st4" d="M425.88,264.25h3.01v-15.6h-3.01v-2.37h6.01l10.99,15.6v-13.23h-2.97v-2.37h8.75v2.37h-2.97v17.97h-2.64
								l-11.39-16.07v13.7h2.97v2.37h-8.75V264.25z"/>
							<path class="st4" d="M452.54,264.25h3.01v-15.6h-3.01v-2.37h16.47v5.71h-2.71v-3.34h-7.82v6.55h8.42v2.37h-8.42v6.68h7.89
								v-3.44h2.74v5.81h-16.57V264.25z"/>
							<path class="st4" d="M473.62,264.25h3.01v-15.6h-3.01v-2.37h9.52c4.88,0,8.12,2.41,8.12,6.21c0,2.74-1.64,4.78-4.48,5.58
								l3.44,6.18h2.81v2.37h-4.81l-4.31-7.78h-4.34v5.41h2.97v2.37h-8.92V264.25z M483.21,256.54c3.61,0,5.08-1.67,5.08-3.94
								s-1.5-3.94-5.08-3.94h-3.64v7.88H483.21z"/>
						</g>
					</g>
				</g>
				<g>
					<path class="st2" d="M299.87,308.04c2.59-1.93,9.01-5.25,9.01-9.24c0-1.43-0.9-2.66-3.19-2.66c-1.33,0-2.26,0.4-2.76,0.63
						c0.13,0.23,0.2,0.46,0.2,0.76c0,0.93-0.63,1.69-1.73,1.69c-1.1,0-1.73-0.76-1.73-1.69c0-1.96,2.96-3.56,6.35-3.56
						c3.22,0,5.72,1.43,5.72,4.59c0,3.95-4.05,6.91-7.68,9.01h8.28v2.46h-12L299.87,308.04z"/>
					<path class="st2" d="M315.09,302.19c0-4.45,2.13-8.21,7.34-8.21c5.18,0,7.34,3.76,7.34,8.21c0,4.42-2.16,8.21-7.34,8.21
						C317.22,310.4,315.09,306.61,315.09,302.19z M326.82,302.19c0-3.49-1.26-6.02-4.39-6.02c-3.16,0-4.42,2.53-4.42,6.02
						c0,3.46,1.26,5.98,4.42,5.98C325.56,308.17,326.82,305.64,326.82,302.19z"/>
					<path class="st2" d="M390.42,308.04c2.59-1.93,9.01-5.25,9.01-9.24c0-1.43-0.9-2.66-3.19-2.66c-1.33,0-2.26,0.4-2.76,0.63
						c0.13,0.23,0.2,0.46,0.2,0.76c0,0.93-0.63,1.69-1.73,1.69c-1.1,0-1.73-0.76-1.73-1.69c0-1.96,2.96-3.56,6.35-3.56
						c3.22,0,5.72,1.43,5.72,4.59c0,3.95-4.05,6.91-7.68,9.01h8.28v2.46h-12L390.42,308.04z"/>
					<path class="st2" d="M405.64,302.19c0-4.45,2.13-8.21,7.34-8.21c5.18,0,7.34,3.76,7.34,8.21c0,4.42-2.16,8.21-7.34,8.21
						C407.76,310.4,405.64,306.61,405.64,302.19z M417.37,302.19c0-3.49-1.26-6.02-4.39-6.02c-3.16,0-4.42,2.53-4.42,6.02
						c0,3.46,1.26,5.98,4.42,5.98C416.11,308.17,417.37,305.64,417.37,302.19z"/>
				</g>
			</g>
		</g>
		<g>
			<polygon class="st2" points="465.9,154.61 254.1,154.61 259.46,141.19 254.1,127.77 465.9,127.77 460.54,141.19 			"/>
			<g>
				<path class="st1" d="M281.68,145.97h1.85v-9.56h-1.85v-2.07h6.62c4.05,0,5.58,2.23,5.58,4.32c0,1.6-0.9,3.06-2.77,3.67
					l2.07,3.65h1.69v2.07h-3.47l-2.81-5.02h-2.45v2.95h1.85v2.07h-6.3V145.97z M288.34,141c2.18,0,2.9-1.1,2.9-2.3
					s-0.74-2.3-2.9-2.3h-2.21V141H288.34z"/>
				<path class="st1" d="M304.19,145.97h1.85v-9.56h-1.85v-2.07h11.3v4.03h-2.41v-1.96h-4.43v3.71h5.15v2.07h-5.15v3.78h4.5v-2.05
					h2.43v4.12h-11.39V145.97z"/>
				<path class="st1" d="M325.6,141.72h6.48v2.14h-6.48V141.72z"/>
				<path class="st1" d="M341.8,145.97h1.85v-9.56h-1.85v-2.07h11.3v4.03h-2.41v-1.96h-4.43v3.71h5.15v2.07h-5.15v3.78h4.5v-2.05
					h2.43v4.12H341.8V145.97z"/>
				<path class="st1" d="M362.92,145.97h1.85v-9.56h-1.85v-2.07h6.64v2.07h-2.18v9.56h4.43v-2.21h2.41v4.28h-11.3V145.97z"/>
				<path class="st1" d="M383.33,145.97h1.85v-9.56h-1.85v-2.07h11.3v4.03h-2.41v-1.96h-4.43v3.71h5.15v2.07h-5.15v3.78h4.5v-2.05
					h2.43v4.12h-11.39V145.97z"/>
				<path class="st1" d="M404.31,141.27c0-4.55,3.04-7.2,7.31-7.2c2.21,0,4.25,0.7,5.11,1.1v3.94h-2.5v-2.52
					c-0.65-0.18-1.62-0.34-2.48-0.34c-2.81,0-4.75,1.73-4.75,4.88c0,3.24,2.07,4.93,4.91,4.93c1.87,0,3.58-0.72,4.79-1.44v2.5
					c-0.95,0.5-2.72,1.19-5.02,1.19C407.19,148.31,404.31,145.68,404.31,141.27z"/>
				<path class="st1" d="M428.75,145.97h2.03v-9.56h-2.57v2.09h-2.36v-4.16h12.47v4.16h-2.36v-2.09h-2.57v9.56h2.03v2.07h-6.66
					V145.97z"/>
			</g>
		</g>
		<polygon class="st0" points="254.23,139.66 175.26,139.66 175.26,142.72 254.23,142.72 254.85,141.19 		"/>
		<polygon class="st0" points="544.74,139.66 465.77,139.66 465.15,141.19 465.77,142.72 544.74,142.72 		"/>
	</g>
</g>
</svg>
