<?xml version="1.0" standalone="no"?>
<!DOCTYPE svg PUBLIC "-//W3C//DTD SVG 20010904//EN"
 "http://www.w3.org/TR/2001/REC-SVG-20010904/DTD/svg10.dtd">
<svg version="1.0" xmlns="http://www.w3.org/2000/svg"
 width="1200.000000pt" height="1200.000000pt" viewBox="0 0 1200.000000 1200.000000"
 preserveAspectRatio="xMidYMid meet">
<metadata>
Created by potrace 1.11, written by Peter Selinger 2001-2013
</metadata>
<g transform="translate(0.000000,1200.000000) scale(0.100000,-0.100000)"
fill="#000000" stroke="none">
<path d="M1479 10791 c0 -3 -1 -2161 -2 -4796 l0 -4790 2101 -1 2102 -1 2
1411 3 1411 315 0 315 0 5 -1410 5 -1410 2099 0 2099 0 0 4780 c-1 2629 -2
4787 -2 4796 -1 14 -192 16 -2101 16 l-2100 0 -2 -1396 -3 -1396 -315 0 -315
0 -5 1395 -5 1395 -2097 1 c-1154 0 -2098 -2 -2099 -5z"/>
</g>
</svg>
